<?xml version="1.0" encoding="utf-8"?>
<!-- Generator: Adobe Illustrator 25.2.0, SVG Export Plug-In . SVG Version: 6.00 Build 0)  -->
<svg version="1.1" id="Layer_1" xmlns="http://www.w3.org/2000/svg" xmlns:xlink="http://www.w3.org/1999/xlink" x="0px" y="0px"
	 viewBox="0 0 48 49" style="enable-background:new 0 0 48 49;" xml:space="preserve">
<style type="text/css">
	.st0{fill:#1F84B5;}
</style>
<g>
	<path class="st0" d="M47.42,21.57c-0.2,0.45-0.56,0.58-1.03,0.58c-2.18-0.01-4.36,0-6.54-0.01c-0.33,0-0.52,0.11-0.7,0.38
		c-1.08,1.59-1.35,3.29-0.83,5.14c0.83,2.93,1.41,5.9,1.3,8.96c-0.1,2.93-0.48,5.81-1.8,8.47c-0.37,0.74-0.88,1.42-1.37,2.09
		c-0.42,0.57-1.01,0.84-1.72,0.7c-0.74-0.15-1.18-0.63-1.39-1.35c-0.8-2.78-1.77-5.5-3.01-8.12c-0.88-1.85-1.84-3.65-3.25-5.16
		c-0.42-0.45-0.91-0.86-1.43-1.2c-1.07-0.7-2.18-0.67-3.27-0.01c-1.01,0.62-1.76,1.5-2.43,2.45c-1.7,2.42-2.87,5.12-3.88,7.88
		c-0.5,1.36-0.93,2.74-1.35,4.12c-0.23,0.74-0.64,1.24-1.41,1.4c-0.73,0.15-1.29-0.18-1.76-0.73c-1.35-1.59-2.06-3.47-2.52-5.46
		c-1.09-4.74-0.67-9.41,0.68-14.03c0.55-1.86,0.24-3.58-0.86-5.17c-0.17-0.24-0.34-0.34-0.63-0.34c-2.04,0.01-4.09,0.01-6.13,0.01
		c-1.4,0-1.48-0.08-1.48-1.46c0-0.76,0-1.52,0-2.29c0.01-0.63,0.29-0.92,0.93-0.92c1.42-0.01,2.84,0,4.25,0c0.16,0,0.33,0,0.51,0
		c-0.21-0.87-0.44-1.69-0.61-2.52c-0.47-2.38-0.58-4.79-0.3-7.19c0.3-2.59,1.94-4.26,4.2-5.37c1.4-0.68,2.88-1.05,4.42-1.22
		c0.16-0.02,0.33-0.06,0.49-0.09c0.67,0,1.34,0,2.01,0c0.07,0.02,0.14,0.06,0.21,0.07c2.59,0.22,4.96,1.08,7.05,2.63
		c0.21,0.15,0.33,0.1,0.51-0.03c1.56-1.17,3.31-1.93,5.21-2.33c0.67-0.14,1.34-0.23,2.02-0.34c0.67,0,1.34,0,2.01,0
		c0.16,0.03,0.33,0.07,0.49,0.09c1.97,0.23,3.85,0.75,5.53,1.85c1.72,1.12,2.87,2.67,3.1,4.72c0.26,2.4,0.17,4.8-0.3,7.18
		c-0.16,0.84-0.4,1.67-0.61,2.55c0.18,0,0.33,0,0.48,0c1.37,0,2.74,0.02,4.11-0.01c0.49-0.01,0.86,0.12,1.11,0.54
		C47.42,19.2,47.42,20.39,47.42,21.57z M13.85,17.46c0-1.27,0-2.48,0-3.7c0-0.67,0.28-0.96,0.93-0.96c6.14,0,12.28,0,18.43,0
		c0.65,0,0.93,0.29,0.93,0.96c0,1.07,0,2.13,0,3.2c0,0.16,0,0.32,0,0.5c1.93,0,3.79,0.01,5.64-0.02c0.12,0,0.31-0.21,0.36-0.36
		c0.64-1.82,0.96-3.71,1.02-5.64c0.03-1,0.05-2.01-0.02-3.02C41,6.16,39.71,4.66,37.71,3.76c-2.67-1.2-5.46-1.46-8.3-0.72
		c-2.16,0.56-4.06,1.57-5.59,3.26c-0.88,0.97-1.93,1.82-2.98,2.62c-1.08,0.83-2.3,1.45-3.71,1.5c-0.56,0.02-0.9-0.25-0.92-0.72
		c-0.02-0.47,0.28-0.74,0.84-0.83c0.43-0.07,0.88-0.13,1.28-0.3c1.8-0.78,3.2-2.08,4.55-3.5c-0.17-0.12-0.29-0.23-0.43-0.32
		C18.69,2.36,14.71,2,10.58,3.64C8.7,4.38,7.28,5.66,6.95,7.76c-0.18,1.18-0.14,2.4-0.12,3.6c0.03,1.96,0.37,3.88,1.01,5.73
		c0.05,0.15,0.23,0.36,0.36,0.36C10.06,17.47,11.92,17.46,13.85,17.46z M37.46,22.22c-1.12,0-2.21,0-3.32,0c0,1.16,0,2.29,0,3.41
		c0,1.01-0.2,1.21-1.2,1.21c-5.84,0-11.68,0-17.51,0c-1.52,0-1.58-0.06-1.58-1.56c0-1.02,0-2.03,0-3.07c-1.12,0-2.2,0-3.26,0
		c-0.01,0.04-0.02,0.05-0.02,0.07c0.01,0.04,0.02,0.09,0.04,0.13c1.06,1.97,1.09,4,0.47,6.11c-1.23,4.14-1.52,8.35-0.61,12.6
		c0.37,1.72,0.92,3.38,2.04,4.79c0.14,0.17,0.3,0.32,0.51,0.55c0.09-0.23,0.16-0.37,0.21-0.52c0.46-1.39,0.87-2.79,1.37-4.16
		c1.03-2.84,2.21-5.62,4-8.07c0.63-0.87,1.36-1.69,2.17-2.39c2.06-1.79,4.36-1.76,6.46-0.02c1.42,1.17,2.45,2.66,3.35,4.25
		c1.83,3.22,3.08,6.68,4.13,10.22c0.06,0.22,0.16,0.43,0.27,0.72c0.2-0.21,0.34-0.31,0.42-0.45c0.45-0.74,0.97-1.45,1.3-2.24
		c1.1-2.61,1.37-5.39,1.36-8.19c-0.01-2.63-0.6-5.16-1.29-7.68c-0.51-1.84-0.33-3.62,0.53-5.33C37.35,22.47,37.4,22.36,37.46,22.22z
		 M22.44,20.61c0,0.65,0,1.27,0,1.89c0,1.03-0.19,1.21-1.23,1.21c-0.76,0-1.52,0-2.29,0c-0.96,0-1.15-0.19-1.15-1.15
		c0-0.65,0-1.3,0-1.95c-0.82,0-1.55,0-2.33,0c0,1.56,0,3.09,0,4.64c5.72,0,11.42,0,17.14,0c0-1.48,0-2.93-0.01-4.38
		c0-0.1-0.15-0.27-0.24-0.28c-0.68-0.02-1.36-0.01-2.09-0.01c0,0.75,0,1.45,0,2.15c0,0.71-0.25,0.97-0.96,0.98
		c-0.85,0.01-1.71,0-2.56,0c-0.95,0-1.15-0.21-1.15-1.15c0-0.65,0-1.29,0-1.95C24.49,20.61,23.49,20.61,22.44,20.61z M15.44,14.37
		c0,1.55,0,3.08,0,4.62c0.79,0,1.54,0,2.33,0c0-0.73,0-1.43,0-2.13c0-0.67,0.27-0.94,0.94-0.95c0.55-0.01,1.1,0.01,1.65,0
		c2.13-0.03,2.12-0.06,2.08,2.06c-0.01,0.34,0,0.69,0,1.02c1.08,0,2.09,0,3.12,0c0-0.74,0-1.44,0-2.14
		c0.01-0.66,0.29-0.94,0.96-0.94c0.91-0.01,1.83,0,2.74,0c0.7,0,0.96,0.27,0.97,0.97c0,0.7,0,1.39,0,2.12c0.8,0,1.55,0,2.33,0
		c0-1.56,0-3.09,0-4.63C26.84,14.37,21.15,14.37,15.44,14.37z M2.16,20.55c3.91,0,7.79,0,11.67,0c0-0.51,0-0.98,0-1.49
		c-3.89,0-7.77,0-11.67,0C2.16,19.56,2.16,20.04,2.16,20.55z M45.84,19.07c-3.91,0-7.79,0-11.65,0c0,0.53,0,1.01,0,1.5
		c3.9,0,7.76,0,11.65,0C45.84,20.06,45.84,19.58,45.84,19.07z M19.34,22.12c0.54,0,1.03,0,1.52,0c0-1.57,0-3.09,0-4.62
		c-0.53,0-1.02,0-1.52,0C19.34,19.06,19.34,20.57,19.34,22.12z M27.14,22.13c0.52,0,1.01,0,1.52,0c0-1.56,0-3.08,0-4.63
		c-0.52,0-1.01,0-1.52,0C27.14,19.05,27.14,20.58,27.14,22.13z"/>
</g>
</svg>
