<?xml version="1.0" encoding="utf-8"?>
<!-- Generator: Adobe Illustrator 25.2.0, SVG Export Plug-In . SVG Version: 6.00 Build 0)  -->
<svg version="1.1" id="Layer_1" xmlns="http://www.w3.org/2000/svg" xmlns:xlink="http://www.w3.org/1999/xlink" x="0px" y="0px"
	 viewBox="0 0 48 49" style="enable-background:new 0 0 48 49;" xml:space="preserve">
<style type="text/css">
	.st0{fill:#1F84B5;}
</style>
<g>
	<path class="st0" d="M12.53,26.65c-0.78,0.55-1.61,1.05-2.34,1.67c-1.08,0.91-2.21,1.67-3.64,1.85c-0.71,0.09-1.44,0.08-2.16,0.09
		c-1.05,0.01-2.09,0.01-3.14,0c-0.55,0-0.82-0.24-0.81-0.66c0.01-0.4,0.27-0.62,0.8-0.62c1.55-0.02,3.11-0.01,4.66-0.04
		c0.9-0.02,1.74-0.3,2.45-0.83c1.25-0.94,2.39-2.03,3.94-2.66c-0.39-0.7-0.73-1.35-1.12-1.97c-0.82-1.31-1.49-2.68-1.8-4.21
		c-0.72-3.52,0.76-7.09,3.66-8.83c1.56-0.93,3.21-0.99,4.9-0.55c1.56,0.4,3.11,0.86,4.65,1.32c1.03,0.31,2.02,0.23,3.04-0.04
		c0.89-0.24,1.63-0.62,2.27-1.34c0.81-0.92,1.76-1.71,2.67-2.54c0.18-0.17,0.24-0.3,0.17-0.55c-0.23-0.85-0.02-1.6,0.63-2.18
		c0.97-0.87,1.96-1.73,2.98-2.54c1.02-0.81,2.34-0.66,3.14,0.28c0.76,0.89,0.64,2.25-0.32,3.1c-0.94,0.84-1.91,1.65-2.88,2.45
		c-0.67,0.55-1.45,0.7-2.25,0.37c-0.36-0.15-0.55-0.06-0.8,0.16c-3.16,2.72-5.71,5.93-7.68,9.59c-2.25,4.16-3.67,8.61-4.42,13.26
		c-0.35,2.19-0.52,4.42-0.77,6.63c-0.04,0.35-0.09,0.73-0.51,0.77c-0.22,0.02-0.51-0.11-0.66-0.26c-0.12-0.12-0.12-0.4-0.11-0.61
		c0.2-3.75,0.76-7.45,1.71-11.09c0.66-2.53,1.52-4.99,2.63-7.36c0.04-0.1,0.08-0.19,0.12-0.28c-0.03-0.04-0.04-0.08-0.06-0.09
		c-1.07-0.37-2.13-0.79-3.23-1.08c-1.38-0.38-2.75,1.01-2.28,2.36c0.92,2.62,0.78,5.29,0.6,7.98c-0.19,2.87-0.54,5.73-0.41,8.61
		c0.05,1.23,0.23,2.45,0.65,3.61c0.47,1.31,1.25,2.38,2.55,3.12c-0.08-0.48-0.15-0.89-0.2-1.31c-0.36-2.92-0.23-5.8,0.87-8.57
		c0.46-1.15,1.07-2.22,2.07-3c1.21-0.94,2.62-0.93,3.81,0.02c1.23,0.98,1.88,2.34,2.32,3.79c0.89,2.89,0.98,5.83,0.43,8.8
		c-0.01,0.06-0.02,0.12-0.03,0.23c0.93-0.51,1.59-1.22,2.07-2.09c0.82-1.48,1.12-3.1,1.11-4.75c-0.02-2.35-0.17-4.7-0.31-7.04
		c-0.15-2.58-0.44-5.15,0.06-7.72c0.09-0.48,0.23-0.95,0.4-1.42c0.29-0.81,0.13-1.52-0.45-2.12c-0.57-0.58-1.27-0.71-2.04-0.45
		c-1.19,0.4-2.38,0.81-3.58,1.21c-0.23,0.08-0.47,0.13-0.72,0.17c-0.39,0.06-0.68-0.09-0.77-0.49c-0.09-0.4,0.12-0.64,0.49-0.76
		c1.1-0.35,2.19-0.71,3.29-1.05c0.51-0.16,1.03-0.34,1.55-0.42c2.25-0.32,4.21,1.79,3.51,3.94c-0.86,2.64-0.7,5.3-0.55,7.99
		c0.15,2.61,0.35,5.21,0.39,7.82c0.02,1.35-0.26,2.7-0.4,3.99c0.02-0.03,0.12-0.14,0.2-0.25c1.44-2.04,1.82-4.33,1.56-6.76
		c-0.12-1.14-0.28-2.29-0.44-3.43c-0.34-2.55,0.19-4.88,1.65-7.01c0.86-1.25,1.52-2.61,1.72-4.13c0.38-2.84-0.41-5.22-2.78-6.97
		c-0.85-0.63-1.82-0.86-2.87-0.83c-0.54,0.02-0.83-0.22-0.84-0.63c-0.01-0.4,0.3-0.64,0.83-0.66c2.55-0.08,4.38,1.2,5.69,3.23
		c1.75,2.71,1.75,5.6,0.5,8.5c-0.43,1-1.05,1.91-1.57,2.86c-0.21,0.39-0.41,0.78-0.61,1.16c0.71,0.45,1.39,0.84,2.03,1.28
		c0.42,0.28,0.81,0.61,1.19,0.95c1.06,0.95,2.3,1.38,3.71,1.37c1.31-0.01,2.61-0.01,3.92,0c0.2,0,0.45-0.02,0.58,0.09
		c0.17,0.14,0.33,0.39,0.33,0.59c0,0.18-0.21,0.37-0.35,0.54c-0.04,0.05-0.14,0.05-0.22,0.05c-1.87-0.03-3.75,0-5.62-0.11
		c-1.16-0.07-2.16-0.66-3.04-1.42c-0.89-0.77-1.8-1.48-2.94-2c-0.04,0.37-0.13,0.72-0.1,1.05c0.12,1.58,0.21,3.16,0.42,4.72
		c0.47,3.58-0.15,6.82-2.74,9.51c-1.17,1.22-2.57,2.09-4.06,2.83c-0.43,0.21-0.85,0.16-1.21-0.13c-0.37-0.29-0.48-0.69-0.37-1.15
		c0.58-2.67,0.63-5.35-0.09-7.99c-0.27-1.01-0.69-2.01-1.23-2.9c-1.14-1.88-2.77-1.85-3.98-0.01c-0.96,1.46-1.38,3.11-1.58,4.81
		c-0.24,2.01-0.18,4.02,0.28,6c0.12,0.52,0,0.95-0.42,1.27c-0.41,0.31-0.85,0.26-1.3,0.04c-2.01-1-3.78-2.29-5.07-4.16
		c-1.53-2.23-1.92-4.72-1.67-7.34c0.16-1.71,0.36-3.42,0.5-5.13c0.04-0.45-0.05-0.91-0.08-1.37C12.61,26.72,12.57,26.69,12.53,26.65
		z M25.41,12.53c-1.54,0.53-2.98-0.01-4.44-0.45c-1.06-0.32-2.12-0.63-3.19-0.91c-2.89-0.78-4.96,0.27-6.42,2.82
		c-1.13,1.97-1.21,4.1-0.41,6.18c0.48,1.25,1.2,2.41,1.88,3.58c0.96,1.64,1.32,3.4,1.15,5.27c-0.13,1.42-0.31,2.84-0.46,4.26
		c-0.24,2.28,0.06,4.45,1.31,6.42c0.16,0.25,0.34,0.48,0.51,0.72c-0.43-1.84-0.57-3.67-0.48-5.52c0.14-2.72,0.35-5.43,0.5-8.14
		c0.12-2.08,0.06-4.13-0.61-6.15c-0.72-2.15,1.2-4.4,3.43-4.04c0.94,0.15,1.85,0.53,2.77,0.81c0.4,0.12,0.81,0.26,1.13,0.36
		C23.22,15.97,24.3,14.28,25.41,12.53z M32.79,7.2c0.33-0.19,0.59-0.28,0.79-0.45c0.86-0.71,1.71-1.44,2.56-2.18
		c0.15-0.13,0.3-0.27,0.4-0.44C36.78,3.78,36.7,3.28,36.4,3c-0.31-0.29-0.82-0.35-1.14-0.08c-1.02,0.86-2.04,1.73-3.04,2.6
		c-0.31,0.27-0.41,0.66-0.19,1C32.19,6.79,32.51,6.96,32.79,7.2z"/>
	<path class="st0" d="M23.97,47.52c-7.5,0-15.01,0-22.51,0c-0.17,0-0.34,0.01-0.51-0.01c-0.32-0.04-0.49-0.25-0.51-0.56
		c-0.03-0.33,0.13-0.57,0.45-0.66c0.16-0.04,0.34-0.03,0.5-0.03c15.07,0,30.14,0,45.21,0c0.15,0,0.31-0.01,0.46,0.02
		c0.33,0.07,0.5,0.3,0.49,0.63c0,0.34-0.18,0.55-0.52,0.6c-0.17,0.02-0.34,0.01-0.51,0.01C39.01,47.52,31.49,47.52,23.97,47.52z"/>
</g>
</svg>
