<?xml version="1.0" encoding="utf-8"?>
<!-- Generator: Adobe Illustrator 25.2.0, SVG Export Plug-In . SVG Version: 6.00 Build 0)  -->
<svg version="1.1" id="Layer_1" xmlns="http://www.w3.org/2000/svg" xmlns:xlink="http://www.w3.org/1999/xlink" x="0px" y="0px"
	 viewBox="0 0 48 49" style="enable-background:new 0 0 48 49;" xml:space="preserve">
<style type="text/css">
	.st0{fill:#1F84B5;}
</style>
<g>
	<path class="st0" d="M17.18,32.88c-1.33,0.57-2.62,1.03-3.82,1.66C8.05,37.28,4.29,41.45,2.1,47.02c-0.03,0.09-0.06,0.17-0.1,0.26
		c-0.17,0.34-0.42,0.53-0.82,0.4c-0.36-0.12-0.53-0.48-0.36-0.86c0.49-1.12,0.94-2.28,1.54-3.34c3.14-5.6,7.77-9.43,13.85-11.52
		c0.09-0.03,0.17-0.06,0.26-0.09c0.03-0.01,0.05-0.03,0.16-0.1c-0.38-0.53-0.74-1.08-1.14-1.6c-1.41-1.82-2.6-3.77-3.35-5.96
		c-0.42-1.21-0.68-2.46-0.52-3.76c0.17-1.43,0.84-2.55,2.04-3.34c0.13-0.08,0.25-0.16,0.41-0.27c-0.33-0.81-0.64-1.61-0.98-2.4
		c-0.04-0.1-0.23-0.19-0.36-0.21c-2.33-0.31-4.66-0.61-6.99-0.91c-1.45-0.19-2.9-0.37-4.34-0.56c-0.48-0.06-0.65-0.29-0.65-0.83
		c0-2.83,0-5.66,0-8.49c0-0.48-0.01-0.95,0-1.43C0.75,1.4,1.09,1.15,1.68,1.3c5.68,1.52,11.36,3.03,17.04,4.56
		c1.55,0.42,2.45,1.67,2.46,3.38c0.01,2.03,0,4.06,0,6.09c0,0.18,0,0.36,0,0.66c0.54-0.19,1.02-0.31,1.44-0.53
		c0.69-0.36,1.36-0.78,2.03-1.19c1.28-0.77,2.64-1.32,4.16-1.34c1.21-0.02,2.27,0.35,3.17,1.15c0.07,0.06,0.14,0.11,0.17,0.14
		c0.82-0.82,1.62-1.62,2.5-2.51c-0.17-0.15-0.41-0.32-0.61-0.53c-0.7-0.72-0.71-1.73-0.03-2.39c0.66-0.65,1.66-0.63,2.36,0.05
		c0.53,0.51,1.04,1.04,1.53,1.54c1.24-1.24,2.45-2.46,3.6-3.61c-0.15-0.41-0.38-0.82-0.44-1.25c-0.09-0.69,0.25-1.23,0.87-1.54
		c0.62-0.32,1.27-0.3,1.77,0.17c1.09,1.02,2.15,2.07,3.17,3.16c0.58,0.62,0.49,1.57-0.1,2.18c-0.58,0.6-1.51,0.66-2.19,0.16
		c-0.1-0.07-0.19-0.16-0.24-0.2c-1.23,1.23-2.44,2.45-3.69,3.7c0.45,0.44,0.96,0.93,1.45,1.43c0.76,0.77,0.8,1.77,0.1,2.46
		c-0.68,0.67-1.68,0.63-2.42-0.11c-0.18-0.18-0.32-0.41-0.49-0.62c-0.19,0.17-0.27,0.23-0.34,0.3c-1.45,1.45-2.9,2.89-4.33,4.34
		c-0.13,0.13-0.24,0.33-0.26,0.5c-0.12,1.42-0.17,2.85-0.32,4.27c-0.2,1.97,0.14,3.85,0.79,5.7c0.2,0.56,0.37,1.14,0.59,1.69
		c0.1,0.23,0.27,0.49,0.48,0.6c4.55,2.55,7.99,6.14,10.3,10.81c0.33,0.67,0.61,1.37,0.9,2.07c0.23,0.55,0.13,0.89-0.26,1.06
		c-0.38,0.16-0.71-0.03-0.92-0.58c-1.03-2.68-2.49-5.11-4.39-7.25c-1.5-1.69-3.21-3.13-5.13-4.32c-0.12-0.07-0.24-0.14-0.41-0.24
		c0.11,0.81,0.25,1.56,0.32,2.31c0.17,1.86,0.24,3.72-0.24,5.55c-0.14,0.55-0.42,1.1-0.78,1.53c-0.62,0.73-1.63,0.72-2.27,0.01
		c-0.31-0.34-0.54-0.78-0.71-1.22c-0.67-1.7-1.24-3.44-1.97-5.11c-0.77-1.77-1.78-3.41-3.14-4.8c-0.26-0.27-0.65-0.41-0.98-0.62
		c-0.18,0.34-0.44,0.67-0.54,1.03c-0.47,1.82-0.53,3.69-0.33,5.54c0.21,1.92,0.6,3.82,0.89,5.73c0.06,0.39,0.07,0.81-0.02,1.19
		c-0.23,1.07-1.17,1.6-2.17,1.15c-0.55-0.25-1.09-0.66-1.49-1.12c-1.7-1.97-2.87-4.26-3.62-6.73c-0.47-1.55-0.75-3.16-1.14-4.74
		C17.65,34.32,17.42,33.67,17.18,32.88z M23.69,28.24c-0.91,0.91-1.8,1.81-2.69,2.7c-0.36,0.36-0.73,0.4-1.01,0.13
		c-0.3-0.29-0.26-0.65,0.12-1.04c0.25-0.25,0.5-0.5,0.75-0.75c0.65-0.65,1.3-1.29,1.95-1.93c-0.51-0.61-0.51-0.76-0.05-1.32
		c0.89-1.08,1.8-2.15,2.68-3.23c0.11-0.14,0.23-0.36,0.2-0.51c-0.21-0.88,0.12-1.55,0.73-2.15c1.53-1.51,3.05-3.04,4.57-4.56
		c0.11-0.11,0.22-0.24,0.39-0.43c-0.45-0.26-0.82-0.54-1.24-0.71c-0.83-0.34-1.69-0.24-2.54-0.04c-1.18,0.27-2.17,0.92-3.17,1.56
		c-0.86,0.54-1.76,1.03-2.77,1.21c-0.38,0.07-0.46,0.22-0.46,0.57c0.02,1.23,0.01,2.46,0.01,3.69c0,0.12,0,0.25,0,0.37
		c-0.03,0.66-0.34,1.06-0.91,1.16c-0.59,0.1-1.03-0.18-1.25-0.83c-0.5-1.48-1-2.97-1.48-4.46c-0.09-0.28-0.22-0.43-0.52-0.35
		c-0.72,0.2-1.47,0.33-2.16,0.61c-1.17,0.48-1.87,1.4-1.97,2.67c-0.05,0.59-0.03,1.2,0.09,1.78c0.54,2.67,1.91,4.94,3.55,7.06
		c0.76,0.98,1.46,2,1.83,3.18c0.44,1.38,0.78,2.8,1.09,4.22c0.67,3.04,1.8,5.87,3.69,8.36c0.31,0.41,0.71,0.76,1.11,1.1
		c0.13,0.11,0.43,0.19,0.54,0.12c0.14-0.1,0.23-0.37,0.21-0.55c-0.08-0.69-0.18-1.37-0.32-2.04c-0.6-2.94-0.93-5.89-0.5-8.88
		c0.13-0.88,0.28-1.77,0.79-2.53c0.5-0.75,1.24-0.95,2.05-0.55c0.27,0.14,0.55,0.3,0.76,0.52c0.52,0.54,1.05,1.09,1.5,1.68
		c1.63,2.17,2.72,4.62,3.58,7.18c0.25,0.74,0.52,1.48,0.82,2.2c0.08,0.2,0.33,0.46,0.49,0.45c0.17-0.01,0.42-0.28,0.48-0.48
		c0.18-0.63,0.36-1.27,0.42-1.93c0.31-3.32-0.28-6.51-1.44-9.62c-0.72-1.92-1.07-3.91-0.87-5.97c0.1-0.98,0.2-1.96,0.29-2.93
		c0.01-0.11-0.02-0.22-0.04-0.41c-0.8,0.81-1.54,1.55-2.28,2.29c-0.53,0.53-1.15,0.72-1.9,0.59c-0.17-0.03-0.42,0.04-0.56,0.15
		c-1.08,0.87-2.13,1.76-3.2,2.65C24.47,28.73,24.34,28.74,23.69,28.24z M2.04,8.13c0.08,0.02,0.14,0.03,0.2,0.04
		c4.46,0.58,8.93,1.16,13.4,1.72c0.48,0.06,0.73,0.26,0.88,0.72c1.03,3.12,2.08,6.23,3.12,9.35c0.05,0.16,0.11,0.31,0.17,0.46
		c0.09-3.8,0.1-7.57,0.09-11.34c-0.01-1.05-0.63-1.75-1.68-2.03c-3.8-1.02-7.59-2.03-11.39-3.05C5.25,3.57,3.66,3.15,2.04,2.71
		C2.04,4.53,2.04,6.31,2.04,8.13z M38.27,15.52c-0.93-0.92-1.83-1.81-2.66-2.64c-0.35,0.33-0.72,0.68-1.18,1.11
		c0.2,0.17,0.43,0.33,0.62,0.52c0.27,0.28,0.3,0.61,0.02,0.9c-0.28,0.29-0.62,0.27-0.9-0.01c-0.2-0.2-0.37-0.44-0.54-0.65
		c-0.43,0.41-0.77,0.74-1.18,1.13c0.24,0.21,0.47,0.38,0.67,0.59c0.26,0.27,0.26,0.58,0.01,0.87c-0.24,0.27-0.61,0.29-0.9,0.01
		c-0.21-0.2-0.37-0.44-0.55-0.66c-0.43,0.41-0.77,0.74-1.19,1.15c0.21,0.17,0.44,0.33,0.63,0.53c0.31,0.31,0.31,0.67,0.04,0.94
		c-0.26,0.26-0.63,0.25-0.94-0.06c-0.19-0.19-0.34-0.42-0.47-0.59c-0.45,0.42-0.8,0.74-1.18,1.1c0.22,0.2,0.43,0.36,0.6,0.55
		c0.31,0.33,0.32,0.67,0.05,0.94c-0.25,0.26-0.64,0.25-0.94-0.04c-0.19-0.19-0.35-0.42-0.61-0.74c-0.23,0.29-0.34,0.48-0.49,0.63
		c-0.46,0.49-0.47,0.78,0.01,1.25c0.46,0.47,0.93,0.94,1.4,1.4c0.55,0.55,0.84,0.55,1.39,0.01c1.25-1.25,2.5-2.5,3.75-3.75
		C35.25,18.53,36.76,17.02,38.27,15.52z M16.98,16c-0.53-1.58-1.04-3.14-1.58-4.68c-0.04-0.11-0.26-0.19-0.4-0.21
		c-3.03-0.4-6.06-0.79-9.09-1.18C4.63,9.76,3.36,9.6,2.05,9.44c0,0.72,0,1.42,0,2.13c0.52,0.07,1,0.13,1.49,0.19
		c3.24,0.42,6.48,0.84,9.73,1.24c0.5,0.06,0.76,0.29,0.93,0.74c0.33,0.87,0.69,1.73,1.04,2.6C15.83,16.22,16.38,16.11,16.98,16z
		 M35.17,9.57c-0.13,0.1-0.31,0.18-0.31,0.26c0,0.17,0.03,0.41,0.15,0.52c1.88,1.9,3.78,3.79,5.67,5.69
		c0.19,0.2,0.41,0.32,0.64,0.09c0.24-0.23,0.09-0.44-0.1-0.63c-1.88-1.88-3.76-3.76-5.65-5.64C35.46,9.75,35.32,9.68,35.17,9.57z
		 M39.63,12.05c1.23-1.22,2.44-2.43,3.64-3.63c-0.2-0.21-0.44-0.46-0.65-0.68c-1.23,1.23-2.44,2.44-3.68,3.68
		C39.16,11.62,39.43,11.86,39.63,12.05z M26.51,23.52c-0.87,1.05-1.72,2.06-2.59,3.11c0.18,0.17,0.33,0.32,0.51,0.48
		c1.04-0.87,2.06-1.72,3.09-2.58C27.17,24.18,26.86,23.87,26.51,23.52z M42.69,5.03c-0.13,0.1-0.31,0.17-0.31,0.25
		c0,0.18,0.03,0.41,0.15,0.52c0.88,0.92,1.79,1.81,2.69,2.71c0.19,0.19,0.41,0.32,0.64,0.09c0.23-0.23,0.09-0.44-0.1-0.63
		c-0.89-0.89-1.78-1.78-2.67-2.66C42.98,5.21,42.84,5.14,42.69,5.03z"/>
</g>
</svg>
