<?xml version="1.0" encoding="utf-8"?>
<!-- Generator: Adobe Illustrator 25.2.0, SVG Export Plug-In . SVG Version: 6.00 Build 0)  -->
<svg version="1.1" id="Layer_1" xmlns="http://www.w3.org/2000/svg" xmlns:xlink="http://www.w3.org/1999/xlink" x="0px" y="0px"
	 viewBox="0 0 48 49" style="enable-background:new 0 0 48 49;" xml:space="preserve">
<style type="text/css">
	.st0{fill:#1F84B5;}
</style>
<g>
	<path class="st0" d="M46.92,40.17c-0.05,0.12-0.09,0.25-0.14,0.37c-0.36,1-1.06,1.62-2.11,1.77c-1.08,0.15-2.01-0.21-2.58-1.16
		c-1.25-2.08-2.44-4.2-3.66-6.3c-0.25-0.43-0.04-0.73,0.32-1c-0.22-0.37-0.35-0.88-0.66-1.05c-0.27-0.14-0.75,0.12-1.13,0.18
		c-0.51,0.09-1.02,0.17-1.54,0.25c-0.16,0.92-0.27,1.86-0.51,2.76c-0.59,2.23-1.5,4.31-3.18,5.96c-0.29,0.29-0.64,0.54-1,0.74
		c-1.13,0.61-2.22,0.39-3.04-0.6c-0.72-0.86-1.08-1.9-1.25-2.98c-0.26-1.62-0.4-3.25-0.66-4.87c-0.12-0.74-0.35-1.48-0.62-2.18
		c-0.25-0.64-0.74-1.14-1.47-1.15c-0.73,0-1.18,0.52-1.48,1.14c-0.56,1.12-0.68,2.34-0.79,3.56c-0.16,1.69-0.28,3.39-0.91,5
		c-0.19,0.49-0.45,0.98-0.77,1.4c-0.84,1.11-2.01,1.32-3.21,0.63c-1-0.58-1.69-1.45-2.29-2.41c-1.33-2.13-2.02-4.46-2.24-6.95
		c-0.04-0.41-0.08-0.83-0.13-1.3c-0.12,0.09-0.22,0.15-0.29,0.23c-0.58,0.58-1.14,1.18-1.75,1.73c-0.2,0.18-0.52,0.32-0.78,0.32
		c-2.36,0.02-4.71,0.01-7.07,0.02c-0.37,0-0.66-0.1-0.9-0.37c0-0.15,0-0.3,0-0.45c0.2-0.36,0.51-0.45,0.9-0.45
		C4.19,33.02,6.4,33.02,8.6,33c0.22,0,0.49-0.12,0.65-0.27c0.77-0.73,1.52-1.48,2.25-2.24c0.13-0.13,0.22-0.36,0.21-0.54
		c-0.09-1.76-0.19-3.51-0.32-5.27c-0.02-0.24-0.15-0.51-0.32-0.68c-3.33-3.42-3.34-9.13,0.06-12.49c2.38-2.36,5.21-2.72,8.32-1.72
		c1.02,0.33,2.05,0.6,3.08,0.9c0.31,0.09,0.51-0.01,0.71-0.28c0.97-1.34,1.97-2.66,2.94-4c0.22-0.31,0.48-0.44,0.87-0.44
		c6.06,0.01,12.11,0.01,18.17,0.01c0.09,0,0.18-0.01,0.27,0.01c0.36,0.05,0.58,0.26,0.58,0.62c0,0.36-0.21,0.58-0.58,0.62
		c-0.15,0.02-0.3,0.01-0.45,0.01c-5.82,0-11.64,0-17.45-0.01c-0.34,0-0.54,0.1-0.73,0.38c-0.65,0.91-1.32,1.8-1.99,2.7
		c-0.09,0.12-0.17,0.24-0.25,0.36c0.02,0.04,0.04,0.09,0.06,0.13c0.92-0.27,1.83-0.57,2.76-0.82c0.96-0.25,1.93-0.6,2.91-0.66
		c3.3-0.2,5.69,1.31,7.3,4.13c0.17,0.29,0.36,0.47,0.67,0.59c6.82,2.52,8.62,11.53,3.29,16.49c-0.1,0.09-0.19,0.19-0.32,0.31
		c0.22,0.39,0.44,0.77,0.66,1.14c0.71-0.17,0.83-0.12,1.17,0.48c1.05,1.82,2.11,3.64,3.15,5.46c0.25,0.44,0.43,0.91,0.64,1.37
		C46.92,39.57,46.92,39.87,46.92,40.17z M12.93,29.05c0.16-0.15,0.27-0.25,0.37-0.35c0.56-0.56,1.1-1.14,1.69-1.66
		c0.17-0.15,0.5-0.2,0.72-0.15c0.16,0.04,0.35,0.32,0.35,0.5c0,0.2-0.14,0.45-0.29,0.61c-0.79,0.82-1.59,1.62-2.4,2.41
		c-0.23,0.22-0.35,0.44-0.31,0.78c0.09,0.69,0.13,1.39,0.2,2.09c0.19,2.09,0.75,4.07,1.8,5.9c0.52,0.9,1.1,1.74,1.99,2.32
		c0.74,0.48,1.34,0.39,1.78-0.37c0.33-0.57,0.64-1.2,0.76-1.84c0.28-1.51,0.44-3.03,0.64-4.55c0.16-1.2,0.36-2.39,0.97-3.46
		c0.55-0.96,1.35-1.6,2.47-1.6c1.12,0,1.93,0.63,2.48,1.59c0.51,0.88,0.75,1.85,0.89,2.84c0.2,1.48,0.31,2.97,0.56,4.43
		c0.14,0.81,0.42,1.62,0.78,2.36c0.51,1.05,1.25,1.17,2.17,0.44c0.3-0.24,0.59-0.51,0.83-0.81c1.68-2.13,2.47-4.59,2.72-7.29
		c-2.75-0.26-5.06-1.38-6.85-3.47c-1.8-2.11-2.58-4.58-2.34-7.34c0.2-2.34,1.13-4.38,2.79-6.05c2.32-2.34,5.16-3.25,8.49-2.92
		c-0.79-1.14-1.74-1.95-2.94-2.44c-1.7-0.7-3.41-0.59-5.11,0.04c-1.39,0.52-2.79,0.94-4.29,0.97c-0.15,0-0.33,0.13-0.43,0.25
		c-0.32,0.39-0.6,0.82-0.91,1.21c-0.26,0.33-0.61,0.38-0.9,0.16c-0.28-0.21-0.32-0.58-0.09-0.92c0.18-0.27,0.38-0.53,0.56-0.77
		c-1.29-0.41-2.55-0.87-3.85-1.2c-2.09-0.53-4.03-0.19-5.72,1.21c-3.43,2.83-3.57,8.27-0.3,11.38c0.28,0.27,0.41,0.54,0.43,0.93
		C12.72,25.83,12.83,27.39,12.93,29.05z M34.8,31.97c4.77,0.01,8.69-3.88,8.69-8.63c0-4.82-3.87-8.72-8.65-8.71
		c-4.83,0-8.69,3.85-8.7,8.65C26.12,28.08,29.99,31.96,34.8,31.97z M39.8,34.73c1.14,1.96,2.24,3.9,3.39,5.81
		c0.36,0.59,1.2,0.71,1.8,0.35c0.6-0.36,0.85-1.11,0.55-1.75c-0.17-0.36-0.39-0.7-0.59-1.05c-0.91-1.57-1.81-3.14-2.74-4.75
		C41.4,33.81,40.62,34.26,39.8,34.73z M40.28,31.58c-0.36,0.21-0.68,0.4-1.04,0.61c0.21,0.36,0.4,0.69,0.61,1.05
		c0.37-0.21,0.71-0.41,1.06-0.61C40.68,32.25,40.48,31.92,40.28,31.58z"/>
	<path class="st0" d="M1.08,35.96c0.18-0.28,0.41-0.44,0.77-0.44c1.41,0.01,2.83,0,4.24,0.01c0.53,0,0.89,0.42,0.68,0.82
		c-0.1,0.19-0.39,0.4-0.6,0.41c-1.47,0.04-2.94,0.03-4.42,0c-0.23,0-0.45-0.23-0.67-0.35C1.08,36.26,1.08,36.11,1.08,35.96z"/>
	<path class="st0" d="M1.08,38.47c0.2-0.32,0.48-0.44,0.86-0.44c1.34,0.01,2.68,0,4.02,0.01c0.13,0,0.27,0,0.4,0.04
		c0.33,0.1,0.5,0.33,0.46,0.67c-0.04,0.32-0.23,0.53-0.56,0.53c-1.53,0.01-3.06,0.02-4.59-0.01c-0.19,0-0.38-0.23-0.58-0.35
		C1.08,38.77,1.08,38.62,1.08,38.47z"/>
	<path class="st0" d="M43.22,12.24c-0.72,0-1.43,0-2.15,0c-0.46,0-0.72-0.23-0.72-0.61c0-0.38,0.25-0.63,0.7-0.64
		c1.43-0.01,2.86-0.01,4.29,0c0.45,0,0.72,0.25,0.73,0.62c0.01,0.38-0.28,0.63-0.76,0.63C44.62,12.25,43.92,12.24,43.22,12.24z"/>
	<path class="st0" d="M43.2,9.73c-0.7,0-1.4,0-2.1,0c-0.49,0-0.75-0.24-0.74-0.64c0.01-0.38,0.27-0.61,0.73-0.61
		c1.42-0.01,2.83-0.01,4.25,0c0.47,0,0.76,0.26,0.75,0.64c-0.01,0.38-0.3,0.61-0.78,0.61C44.6,9.73,43.9,9.73,43.2,9.73z"/>
	<path class="st0" d="M11.18,17.92c0.07-1.87,0.64-3.41,1.89-4.66c0.66-0.66,1.46-1.07,2.37-1.26c0.49-0.1,0.83,0.07,0.92,0.47
		c0.08,0.37-0.16,0.65-0.63,0.76c-1.63,0.37-2.87,1.8-3.19,3.65c-0.17,0.98-0.07,1.93,0.29,2.85c0.19,0.49,0.08,0.83-0.29,0.98
		c-0.36,0.14-0.69-0.05-0.87-0.53c-0.14-0.38-0.26-0.76-0.34-1.15C11.24,18.62,11.22,18.22,11.18,17.92z"/>
	<path class="st0" d="M34.83,30.82c-4.08,0.06-7.49-3.3-7.55-7.44c-0.06-4.16,3.28-7.56,7.46-7.61c4.13-0.04,7.53,3.31,7.58,7.46
		C42.38,27.38,39.03,30.76,34.83,30.82z M34.81,17.03c-3.47,0-6.27,2.79-6.28,6.25c0,3.47,2.81,6.31,6.23,6.3
		c3.5-0.02,6.3-2.8,6.31-6.28C41.09,19.85,38.26,17.03,34.81,17.03z"/>
</g>
</svg>
