<?xml version="1.0" encoding="utf-8"?>
<!-- Generator: Adobe Illustrator 25.2.0, SVG Export Plug-In . SVG Version: 6.00 Build 0)  -->
<svg version="1.1" id="Layer_1" xmlns="http://www.w3.org/2000/svg" xmlns:xlink="http://www.w3.org/1999/xlink" x="0px" y="0px"
	 viewBox="0 0 48 49" style="enable-background:new 0 0 48 49;" xml:space="preserve">
<style type="text/css">
	.st0{fill:#1F84B5;}
</style>
<g>
	<path class="st0" d="M7.42,36.36c1.1,0,2.21,0.01,3.33-0.01c0.12,0,0.28-0.16,0.35-0.28c1.24-2.12,2.47-4.25,3.68-6.39
		c0.1-0.18,0.1-0.49,0.03-0.7c-0.4-1.17-0.86-2.32-1.27-3.48c-0.17-0.49-0.27-1.01-0.4-1.52c-1.92,0-3.82,0-5.72,0
		c-0.44,1.56-1.78,2.79-3.77,2.41c-1.48-0.28-2.52-1.66-2.47-3.2c0.05-1.47,1.2-2.76,2.65-2.95c1.68-0.23,3,0.67,3.55,2.42
		c1.82,0,3.66,0,5.52,0c-0.21-2.28-0.24-4.51,1.47-6.36c-0.06-0.11-0.11-0.23-0.18-0.34c-1.02-1.78-2.06-3.55-3.07-5.33
		c-0.15-0.26-0.3-0.35-0.6-0.35c-1.04,0.02-2.08,0.01-3.1,0.01c-0.84,1.97-2.15,2.8-3.82,2.43C2.2,12.4,1.17,11.09,1.18,9.62
		c0.01-1.48,1.12-2.8,2.55-3.04c1.66-0.29,2.94,0.55,3.69,2.44c1.18,0,2.37,0.02,3.56-0.01c0.51-0.01,0.8,0.18,1.05,0.61
		c1.05,1.85,2.12,3.69,3.18,5.53c0.07,0.13,0.15,0.26,0.26,0.43c2.71-1.28,5.25-0.04,7.87,0.58c0-2.8,0-5.52,0-8.28
		c-0.92-0.24-1.65-0.76-2.1-1.62c-0.35-0.67-0.44-1.38-0.29-2.11c0.29-1.44,1.61-2.49,3.1-2.48c1.46,0.01,2.77,1.09,3.03,2.51
		c0.32,1.67-0.53,2.99-2.42,3.73c0,2.71,0,5.42,0,8.21c0.34-0.07,0.65-0.11,0.96-0.19c1.02-0.26,2.03-0.6,3.06-0.79
		c1.31-0.25,2.61-0.13,3.87,0.43c0.63-1.09,1.25-2.16,1.87-3.23c0.54-0.94,1.09-1.88,1.62-2.82c0.2-0.36,0.47-0.51,0.88-0.5
		c1.22,0.01,2.44,0.01,3.69,0.01c0.26-0.96,0.79-1.7,1.67-2.16c0.66-0.34,1.36-0.41,2.07-0.27c1.47,0.3,2.51,1.64,2.48,3.15
		c-0.03,1.44-1.11,2.72-2.51,2.98c-1.69,0.31-2.98-0.52-3.73-2.44c-1.1,0-2.21,0-3.33,0.01c-0.1,0-0.23,0.08-0.28,0.17
		c-1.01,1.75-2.02,3.5-3.02,5.25c-0.01,0.01,0.01,0.03,0.02,0.1c0.78,0,1.57,0,2.36,0c0.42,0,0.85-0.01,1.27,0
		c0.49,0.01,0.72,0.24,0.72,0.73c0.01,1.57,0.01,3.14,0,4.71c0,0.53-0.21,0.74-0.75,0.74c-0.8,0.01-1.6,0-2.42,0
		c-0.03,0.23-0.06,0.42-0.1,0.65c1.72,0,3.41,0,5.11,0c0.96-2.01,2.2-2.78,3.84-2.38c1.44,0.35,2.44,1.66,2.39,3.12
		c-0.04,1.48-1.12,2.76-2.54,3c-1.68,0.29-2.94-0.53-3.69-2.42c-1.44,0-2.88,0-4.38,0c0,0.82,0,1.63,0,2.44c0,1.41,0,1.41-1.41,1.41
		c-0.74,0-0.7,0.02-1.04,0.69c-0.29,0.58-0.24,1.05,0.1,1.62c1.17,1.94,2.28,3.91,3.4,5.87c0.16,0.28,0.33,0.37,0.64,0.36
		c1.03-0.02,2.05-0.01,3.11-0.01c0.27-1.02,0.85-1.79,1.82-2.23c0.67-0.3,1.37-0.36,2.08-0.16c1.45,0.39,2.41,1.72,2.32,3.22
		c-0.08,1.43-1.22,2.69-2.62,2.89c-1.68,0.24-2.97-0.63-3.61-2.45c-1.13,0-2.27-0.03-3.42,0.01c-0.63,0.03-0.99-0.21-1.29-0.75
		c-0.96-1.73-1.96-3.43-2.95-5.14c-0.08-0.14-0.17-0.27-0.25-0.4c-0.04,0.01-0.08,0.01-0.13,0.02c0,0.97-0.08,1.95,0.01,2.91
		c0.34,3.62,0.02,7.14-1.33,10.54C31,45.42,30.65,46,30.26,46.53c-0.43,0.59-1.05,0.93-1.82,0.74c-0.79-0.2-1.16-0.81-1.27-1.55
		c-0.14-0.98-0.21-1.98-0.28-2.97c-0.2-2.68-0.69-5.29-1.83-7.75c-0.19-0.41-0.44-0.79-0.71-1.15c-0.28-0.37-0.51-0.39-0.74,0.01
		c-0.47,0.8-0.92,1.63-1.25,2.49c-0.94,2.43-1.21,5-1.37,7.58c-0.04,0.59-0.09,1.17-0.18,1.75c-0.13,0.76-0.48,1.39-1.29,1.59
		c-0.79,0.19-1.38-0.2-1.85-0.77c-0.71-0.86-1.06-1.89-1.39-2.92c-0.95-3.01-1.16-6.09-0.89-9.22c0.09-0.99,0.01-1.98-0.09-3.02
		c-0.08,0.13-0.17,0.25-0.25,0.38c-1.03,1.78-2.06,3.55-3.07,5.33c-0.24,0.42-0.53,0.59-1.02,0.58c-1.19-0.02-2.38-0.01-3.6-0.01
		c-0.26,0.96-0.79,1.7-1.67,2.16c-0.66,0.34-1.36,0.41-2.07,0.27c-1.47-0.3-2.51-1.64-2.48-3.15c0.03-1.44,1.11-2.73,2.51-2.98
		C5.38,33.61,6.67,34.44,7.42,36.36z M33.87,22c-0.35,0-0.64,0.01-0.92,0c-0.61-0.01-0.8-0.21-0.8-0.83c0-1.18,0-2.35,0-3.53
		c0-0.98,0-0.98-0.97-1.21c-1.31-0.3-2.58-0.09-3.83,0.31c-1.09,0.34-2.18,0.69-3.35,0.7c-1.23,0-2.37-0.4-3.52-0.75
		c-1.02-0.31-2.05-0.47-3.12-0.34c-1.41,0.17-2.48,0.85-2.9,2.23c-0.24,0.78-0.35,1.63-0.35,2.44c0.02,2.37,0.67,4.61,1.61,6.78
		c0.91,2.11,1.21,4.32,0.99,6.59c-0.32,3.26-0.05,6.45,1.08,9.54c0.23,0.63,0.59,1.22,0.94,1.79c0.1,0.16,0.37,0.3,0.55,0.28
		c0.12-0.01,0.27-0.31,0.31-0.49c0.09-0.52,0.14-1.05,0.18-1.57c0.16-2.75,0.48-5.47,1.45-8.07c0.39-1.06,0.79-2.13,1.59-2.97
		c0.78-0.82,1.68-0.83,2.43,0.02c0.41,0.47,0.76,1.02,1.02,1.59c1.21,2.59,1.73,5.35,1.93,8.18c0.07,0.95,0.16,1.89,0.27,2.84
		c0.02,0.18,0.18,0.45,0.32,0.49c0.14,0.04,0.41-0.12,0.51-0.27c0.29-0.43,0.59-0.88,0.78-1.37c1.18-2.97,1.56-6.06,1.3-9.24
		c-0.13-1.65-0.2-3.29,0.17-4.91c0.18-0.8,0.44-1.58,0.68-2.4c-0.21,0-0.42,0-0.63,0c-0.69-0.01-0.89-0.2-0.89-0.89
		c0-1.15,0-2.29,0-3.44c0-0.6,0.21-0.81,0.82-0.81c0.75,0,1.5,0,2.27,0C33.8,22.46,33.83,22.27,33.87,22z M37.03,20.71
		c0-1.22,0-2.4,0-3.6c-1.21,0-2.39,0-3.59,0c0,1.21,0,2.4,0,3.6C34.63,20.71,35.81,20.71,37.03,20.71z M6.17,37
		c0-1.03-0.84-1.88-1.86-1.87c-1.03,0.01-1.86,0.86-1.86,1.89c0.01,1.01,0.83,1.84,1.85,1.85C5.33,38.87,6.17,38.03,6.17,37z
		 M41.83,37c0,1.04,0.84,1.87,1.87,1.86c1.01-0.01,1.84-0.84,1.85-1.85c0.01-1.03-0.84-1.88-1.86-1.89
		C42.67,35.12,41.83,35.96,41.83,37z M6.17,9.63C6.16,8.6,5.32,7.77,4.28,7.79C3.26,7.81,2.45,8.63,2.45,9.65
		c0,1.03,0.85,1.88,1.87,1.87C5.34,11.52,6.17,10.67,6.17,9.63z M41.83,9.64c0,1.03,0.84,1.88,1.86,1.88c1.02,0,1.87-0.86,1.86-1.89
		c-0.01-1.01-0.83-1.83-1.85-1.84C42.67,7.78,41.83,8.61,41.83,9.64z M23.98,6.66c1.04,0.01,1.88-0.82,1.89-1.85
		c0.01-1.02-0.84-1.87-1.87-1.87c-1.01,0-1.84,0.82-1.86,1.83C22.11,5.8,22.95,6.66,23.98,6.66z M6.17,23.32
		c0-1.03-0.84-1.88-1.87-1.87c-1.03,0.01-1.86,0.86-1.85,1.89c0.01,1.01,0.84,1.84,1.85,1.85C5.32,25.2,6.17,24.36,6.17,23.32z
		 M45.14,23.3c-0.01-1.03-0.87-1.87-1.89-1.84c-1.01,0.03-1.83,0.86-1.84,1.87c0,1.02,0.86,1.87,1.88,1.87
		C44.32,25.18,45.15,24.33,45.14,23.3z M31.97,26.53c0.87,0,1.69,0,2.54,0c0-0.86,0-1.7,0-2.55c-0.86,0-1.69,0-2.54,0
		C31.97,24.84,31.97,25.66,31.97,26.53z"/>
	<path class="st0" d="M30.89,20.04c0,0.48,0.01,0.97,0,1.45c-0.01,0.44-0.23,0.67-0.67,0.67c-0.98,0.01-1.96,0.01-2.94,0
		c-0.42,0-0.65-0.24-0.65-0.65c-0.01-0.99-0.01-1.99,0-2.99c0-0.39,0.24-0.62,0.63-0.63c0.99-0.01,1.99-0.01,2.98,0
		c0.41,0,0.64,0.24,0.65,0.65C30.9,19.04,30.89,19.54,30.89,20.04z M29.6,20.87c0-0.59,0-1.14,0-1.69c-0.58,0-1.13,0-1.68,0
		c0,0.58,0,1.13,0,1.69C28.48,20.87,29.02,20.87,29.6,20.87z"/>
	<path class="st0" d="M27.99,26.63c-0.35,0-0.69,0.01-1.04,0c-0.5-0.02-0.73-0.23-0.74-0.72c-0.02-0.71-0.02-1.42,0-2.13
		c0.01-0.46,0.24-0.69,0.71-0.71c0.71-0.02,1.42-0.02,2.13,0c0.48,0.01,0.71,0.25,0.72,0.75c0.01,0.69,0.01,1.39,0,2.08
		c-0.01,0.5-0.24,0.71-0.73,0.72C28.68,26.64,28.33,26.63,27.99,26.63z M28.46,25.34c0-0.36,0-0.67,0-0.96c-0.34,0-0.65,0-0.95,0
		c0,0.35,0,0.65,0,0.96C27.85,25.34,28.14,25.34,28.46,25.34z"/>
	<path class="st0" d="M16.82,18.86c0.43-0.01,0.73,0.36,0.62,0.79c-0.51,1.98-0.05,3.84,0.71,5.67c0.05,0.11,0.11,0.21,0.16,0.33
		c0.16,0.38,0.04,0.72-0.3,0.87c-0.37,0.16-0.68,0.02-0.82-0.32c-0.34-0.85-0.7-1.7-0.92-2.58c-0.33-1.32-0.45-2.67-0.12-4.03
		C16.22,19.22,16.35,18.88,16.82,18.86z"/>
</g>
</svg>
