<?xml version="1.0" encoding="utf-8"?>
<!-- Generator: Adobe Illustrator 25.2.0, SVG Export Plug-In . SVG Version: 6.00 Build 0)  -->
<svg version="1.1" id="Layer_1" xmlns="http://www.w3.org/2000/svg" xmlns:xlink="http://www.w3.org/1999/xlink" x="0px" y="0px"
	 viewBox="0 0 189 49" style="enable-background:new 0 0 189 49;" xml:space="preserve">
<style type="text/css">
	.st0{fill:#ED1C24;}
	.st1{fill:none;stroke:#ED1C24;stroke-width:0.5877;stroke-miterlimit:10;}
	.st2{fill:#EF4136;}
</style>
<g>
	<path class="st0" d="M10.74,17.36c-2.42-1.38-4.41-1.81-5.92-1.55c-5.03,0.85-3.31,7.73-1.43,10.74c0.21,0.33,0.12,0.77-0.21,0.99
		l-0.05,0.03c-0.17,0.12-0.36,0.16-0.56,0.11c-0.2-0.04-0.36-0.15-0.47-0.33c-2.59-4.15-3.8-11.99,2.47-13.05
		c1.92-0.32,4.39,0.21,7.32,1.96c0.77-0.78,1.6-1.73,2.56-2.85c7.13-8.45,15.77,0.87,12.23,10.08c-0.08,0.2-0.21,0.34-0.41,0.41
		C26.08,24,25.89,24,25.7,23.91l-0.05-0.02c-0.35-0.16-0.52-0.57-0.38-0.93c2.88-7.48-3.71-15.51-9.65-8.54
		c-2.49,2.9-5.19,6.5-9.46,5.95c-0.21-0.03-0.38-0.13-0.5-0.3c-0.12-0.17-0.16-0.37-0.12-0.57l0.01-0.05
		c0.08-0.37,0.43-0.62,0.8-0.58C8.14,19.08,9.41,18.49,10.74,17.36z"/>
	<path class="st1" d="M10.74,17.36c-2.42-1.38-4.41-1.81-5.92-1.55c-5.03,0.85-3.31,7.73-1.43,10.74c0.21,0.33,0.12,0.77-0.21,0.99
		l-0.05,0.03c-0.17,0.12-0.36,0.16-0.56,0.11c-0.2-0.04-0.36-0.15-0.47-0.33c-2.59-4.15-3.8-11.99,2.47-13.05
		c1.92-0.32,4.39,0.21,7.32,1.96c0.77-0.78,1.6-1.73,2.56-2.85c7.13-8.45,15.77,0.87,12.23,10.08c-0.08,0.2-0.21,0.34-0.41,0.41
		C26.08,24,25.89,24,25.7,23.91l-0.05-0.02c-0.35-0.16-0.52-0.57-0.38-0.93c2.88-7.48-3.71-15.51-9.65-8.54
		c-2.49,2.9-5.19,6.5-9.46,5.95c-0.21-0.03-0.38-0.13-0.5-0.3c-0.12-0.17-0.16-0.37-0.12-0.57l0.01-0.05
		c0.08-0.37,0.43-0.62,0.8-0.58C8.14,19.08,9.41,18.49,10.74,17.36z"/>
	<path class="st0" d="M6.08,29.82c1.14,0.76,2.42,1.24,3.75,1.45c3.09,0.48,6.22-0.61,8.35-2.9c1.02-1.1,1.77-2.44,2.18-3.94
		c-0.78-0.25-1.46-0.3-2.2-0.28c1.95-2.14,5.24-1.06,5.38,1.82c-0.37-0.42-1.39-0.87-1.76-1c-0.21,0.73-0.51,1.49-0.86,2.14
		c-0.19,10.72-9.21,14.16-14.29,4.75c-0.5-0.24-0.99-0.51-1.45-0.82c-0.3,0.42-0.51,0.62-0.65,1.56c-1.4-0.96-0.3-5.16,3.14-3.68
		C7.07,29.07,6.4,29.44,6.08,29.82z M19.11,29.58c-2.47,2.54-6.01,3.73-9.51,3.19c-0.24-0.04-0.47-0.08-0.7-0.13
		C12.75,38.01,17.86,35.99,19.11,29.58z"/>
	<path class="st1" d="M6.08,29.82c1.14,0.76,2.42,1.24,3.75,1.45c3.09,0.48,6.22-0.61,8.35-2.9c1.02-1.1,1.77-2.44,2.18-3.94
		c-0.78-0.25-1.46-0.3-2.2-0.28c1.95-2.14,5.24-1.06,5.38,1.82c-0.37-0.42-1.39-0.87-1.76-1c-0.21,0.73-0.51,1.49-0.86,2.14
		c-0.19,10.72-9.21,14.16-14.29,4.75c-0.5-0.24-0.99-0.51-1.45-0.82c-0.3,0.42-0.51,0.62-0.65,1.56c-1.4-0.96-0.3-5.16,3.14-3.68
		C7.07,29.07,6.4,29.44,6.08,29.82z M19.11,29.58c-2.47,2.54-6.01,3.73-9.51,3.19c-0.24-0.04-0.47-0.08-0.7-0.13
		C12.75,38.01,17.86,35.99,19.11,29.58z"/>
	<path class="st1" d="M6.08,29.82c1.14,0.76,2.42,1.24,3.75,1.45c3.09,0.48,6.22-0.61,8.35-2.9c1.02-1.1,1.77-2.44,2.18-3.94
		c-0.78-0.25-1.46-0.3-2.2-0.28c1.95-2.14,5.24-1.06,5.38,1.82c-0.37-0.42-1.39-0.87-1.76-1c-0.21,0.73-0.51,1.49-0.86,2.14
		c-0.19,10.72-9.21,14.16-14.29,4.75c-0.5-0.24-0.99-0.51-1.45-0.82c-0.3,0.42-0.51,0.62-0.65,1.56c-1.4-0.96-0.3-5.16,3.14-3.68
		C7.07,29.07,6.4,29.44,6.08,29.82z M19.11,29.58c-2.47,2.54-6.01,3.73-9.51,3.19c-0.24-0.04-0.47-0.08-0.7-0.13
		C12.75,38.01,17.86,35.99,19.11,29.58z"/>
	<path class="st0" d="M82.18,17.82h-7.56c-1.98,0-3.58,1.61-3.58,3.61l0,4.61c0,2,1.59,3.6,3.58,3.6h7.56c1.98,0,3.65-1.61,3.6-3.6
		l0-3.09h-7.37l0,2.36h3.82l0,0.25c0,0.62-0.54,1.12-1.2,1.12h-5.23c-0.67,0-1.2-0.5-1.2-1.12l0-3.4l-1.73-1.36h8.16
		c0.67,0,1.2,0.5,1.2,1.12h3.55v-0.49C85.75,19.43,84.16,17.82,82.18,17.82L82.18,17.82z"/>
	<path class="st0" d="M35.39,17.82l0,3.61l0,4.61l0,3.61h11.14c1.98,0,3.58-1.61,3.58-3.61l0-4.61c0-2-1.59-3.61-3.58-3.61H35.39z
		 M37.19,20.79h8.15c0.67,0,1.2,0.5,1.2,1.12l0,3.64c0,0.62-0.54,1.13-1.2,1.13h-6.43v-1.13l0-3.41L37.19,20.79z"/>
	<polygon class="st0" points="161.91,17.82 161.9,29.64 174.23,29.64 174.23,26.8 165.45,26.8 165.45,26.29 163.72,24.93 
		173.68,24.93 173.69,22.32 165.45,22.32 165.45,21.94 163.75,20.6 174.16,20.6 174.17,17.82 	"/>
	<rect x="143.46" y="17.82" class="st0" width="3.77" height="11.82"/>
	<polygon class="st0" points="149.45,17.82 149.44,29.64 160.79,29.64 160.79,26.63 153.21,26.63 153.22,17.82 	"/>
	<polygon class="st0" points="122.96,17.82 122.95,29.64 126.49,29.64 126.41,20.8 130.85,29.64 133.84,29.64 138.3,20.8 
		138.2,29.64 141.74,29.64 141.75,17.82 135.87,17.82 132.34,25.49 128.84,17.82 	"/>
	<path class="st0" d="M51.36,20.8l0,2.7v0.99l0,0.29l0,2.17l0,0.53l0,2.17h2.68l0-2.17h1.94l2.53,2.16h3.73l-2.7-2.2
		c1.27-0.22,2.23-1.32,2.23-2.66l0-0.27v-1.01c0-1.49-1.19-2.7-2.68-2.7H51.36z M52.74,23.01l5.45,0.01c0.5,0,0.9,0.38,0.9,0.84
		l0,0.62h-0.01c-0.04,0.43-0.42,0.77-0.9,0.77h-3.3l-0.85,0.01l0-0.78v-0.45L52.74,23.01z"/>
	<path class="st0" d="M91.1,17.82c-1.98,0-3.58,1.61-3.58,3.61l0,4.61c0,2,1.59,3.61,3.58,3.61h7.56c1.98,0,3.58-1.61,3.58-3.61
		v-0.95h-3.56v0.46c0,0.62-0.54,1.12-1.2,1.12h-5.23c-0.67,0-1.2-0.5-1.2-1.12l0-3.4l-1.73-1.36h8.16c0.67,0,1.2,0.5,1.2,1.12
		l0,0.15h3.56v-0.63c0-2-1.59-3.6-3.58-3.6L91.1,17.82z"/>
	<path class="st0" d="M110.86,17.53c-1.7,0-3.06,1.37-3.07,3.06l0,1.18v0.1c0,1.7,1.36,2.92,3.06,2.92h6.63
		c0.48,0,0.86,0.34,0.86,0.75v0.61c0,0.42-0.39,0.75-0.87,0.75h-5.36c-0.48,0-0.86-0.34-0.86-0.75l0-0.37h-3.46l0,0.78
		c0,1.7,1.36,3.06,3.06,3.06h7.89c1.66,0,3.01-1.31,3.06-2.96v-0.1l0-1.3c0-1.7-1.36-3.06-3.06-3.06h-6.63
		c-0.48,0-0.86-0.34-0.86-0.75V21.4l-0.02,0.01l-1.68-1.15h7.53c0.48,0,0.87,0.34,0.86,0.75l0,0.27h3.46l0-0.69
		c0-1.7-1.36-3.06-3.06-3.06L110.86,17.53z"/>
	<path class="st0" d="M178.06,17.53c-1.7,0-3.06,1.37-3.07,3.06l0,1.18v0.1c0,1.7,1.36,2.92,3.06,2.92h6.63
		c0.48,0,0.86,0.34,0.86,0.75v0.61c0,0.42-0.39,0.75-0.87,0.75h-5.36c-0.48,0-0.86-0.34-0.86-0.75l0-0.37h-3.46l0,0.78
		c0,1.7,1.36,3.06,3.06,3.06h7.89c1.66,0,3.01-1.31,3.06-2.96v-0.1l0-1.3c0-1.7-1.36-3.06-3.06-3.06h-6.63
		c-0.48,0-0.86-0.34-0.86-0.75V21.4l-0.02,0.01l-1.68-1.15h7.53c0.48,0,0.87,0.34,0.86,0.75l0,0.27h3.46l0-0.69
		c0-1.7-1.36-3.06-3.06-3.06L178.06,17.53z"/>
	<rect x="65.04" y="27.1" class="st2" width="2.4" height="2.49"/>
	<g>
		<path class="st0" d="M66.9,32.94h1.84c0.36,0,0.64,0.02,0.81,0.05c0.18,0.03,0.34,0.09,0.48,0.19c0.14,0.1,0.26,0.22,0.35,0.38
			c0.09,0.16,0.14,0.34,0.14,0.54c0,0.22-0.06,0.41-0.17,0.59c-0.12,0.18-0.27,0.31-0.47,0.4c0.28,0.08,0.5,0.22,0.65,0.42
			c0.15,0.2,0.23,0.43,0.23,0.69c0,0.21-0.05,0.41-0.15,0.61c-0.1,0.2-0.23,0.36-0.4,0.47c-0.17,0.12-0.38,0.19-0.62,0.22
			c-0.15,0.02-0.53,0.03-1.12,0.03H66.9V32.94z M67.82,33.7v1.06h0.61c0.36,0,0.59-0.01,0.67-0.02c0.16-0.02,0.28-0.07,0.37-0.16
			c0.09-0.09,0.14-0.21,0.14-0.36c0-0.14-0.04-0.26-0.12-0.35c-0.08-0.09-0.2-0.14-0.35-0.16c-0.09-0.01-0.36-0.02-0.79-0.02H67.82z
			 M67.82,35.53v1.23h0.86c0.33,0,0.55-0.01,0.64-0.03c0.14-0.03,0.25-0.09,0.34-0.18c0.09-0.1,0.13-0.23,0.13-0.39
			c0-0.14-0.03-0.26-0.1-0.35c-0.07-0.1-0.16-0.17-0.29-0.21c-0.13-0.04-0.4-0.07-0.82-0.07H67.82z"/>
		<path class="st0" d="M72.37,37.53h-0.88V34.2h0.82v0.47c0.14-0.22,0.27-0.37,0.38-0.44c0.11-0.07,0.24-0.11,0.38-0.11
			c0.2,0,0.39,0.06,0.58,0.17l-0.27,0.77c-0.15-0.1-0.29-0.14-0.41-0.14c-0.12,0-0.23,0.03-0.31,0.1c-0.09,0.07-0.15,0.19-0.2,0.37
			c-0.05,0.18-0.07,0.55-0.07,1.12V37.53z"/>
		<path class="st0" d="M74.03,33.75v-0.82h0.88v0.82H74.03z M74.03,37.53V34.2h0.88v3.33H74.03z"/>
		<path class="st0" d="M75.73,37.75l1.01,0.12c0.02,0.12,0.06,0.2,0.12,0.24c0.08,0.06,0.22,0.09,0.4,0.09c0.23,0,0.4-0.03,0.52-0.1
			c0.08-0.05,0.14-0.12,0.18-0.22c0.03-0.07,0.04-0.21,0.04-0.4V37c-0.26,0.36-0.6,0.54-1,0.54c-0.45,0-0.8-0.19-1.06-0.57
			c-0.21-0.3-0.31-0.67-0.31-1.12c0-0.56,0.13-0.99,0.4-1.28c0.27-0.29,0.6-0.44,1-0.44c0.41,0,0.75,0.18,1.02,0.54V34.2h0.83v2.99
			c0,0.39-0.03,0.69-0.1,0.88c-0.06,0.19-0.16,0.35-0.27,0.46c-0.12,0.11-0.27,0.2-0.47,0.26c-0.2,0.06-0.44,0.09-0.74,0.09
			c-0.56,0-0.97-0.1-1.2-0.29c-0.24-0.19-0.35-0.44-0.35-0.74C75.73,37.83,75.73,37.8,75.73,37.75z M76.52,35.8
			c0,0.35,0.07,0.61,0.21,0.78c0.14,0.16,0.31,0.25,0.51,0.25c0.22,0,0.4-0.08,0.55-0.25C77.92,36.4,78,36.15,78,35.82
			c0-0.35-0.07-0.6-0.21-0.77c-0.14-0.17-0.32-0.25-0.54-0.25c-0.21,0-0.39,0.08-0.52,0.25C76.59,35.21,76.52,35.46,76.52,35.8z"/>
		<path class="st0" d="M80.61,32.94v1.69c0.28-0.33,0.62-0.5,1.02-0.5c0.2,0,0.39,0.04,0.55,0.11c0.16,0.08,0.29,0.17,0.37,0.29
			s0.14,0.25,0.17,0.39c0.03,0.14,0.05,0.36,0.05,0.66v1.95h-0.88v-1.76c0-0.35-0.02-0.57-0.05-0.67c-0.03-0.09-0.09-0.17-0.18-0.22
			c-0.08-0.06-0.19-0.08-0.32-0.08c-0.15,0-0.28,0.04-0.39,0.11c-0.12,0.07-0.2,0.18-0.25,0.32c-0.05,0.14-0.08,0.36-0.08,0.64v1.67
			h-0.88v-4.6H80.61z"/>
		<path class="st0" d="M85.19,34.2v0.7h-0.6v1.34c0,0.27,0.01,0.43,0.02,0.48c0.01,0.05,0.04,0.08,0.08,0.11
			c0.04,0.03,0.09,0.04,0.15,0.04c0.08,0,0.2-0.03,0.35-0.08l0.08,0.68c-0.2,0.09-0.44,0.13-0.7,0.13c-0.16,0-0.3-0.03-0.43-0.08
			c-0.13-0.05-0.22-0.12-0.28-0.21c-0.06-0.08-0.1-0.2-0.12-0.34c-0.02-0.1-0.03-0.31-0.03-0.62v-1.45h-0.4v-0.7h0.4v-0.66
			l0.88-0.51v1.18H85.19z"/>
		<path class="st0" d="M87.73,36.47l0.88,0.15c-0.11,0.32-0.29,0.57-0.54,0.74c-0.24,0.17-0.55,0.25-0.91,0.25
			c-0.58,0-1.01-0.19-1.29-0.57c-0.22-0.3-0.33-0.69-0.33-1.15c0-0.55,0.14-0.98,0.43-1.3c0.29-0.31,0.65-0.47,1.09-0.47
			c0.5,0,0.89,0.16,1.17,0.49c0.29,0.33,0.42,0.83,0.41,1.5h-2.21c0.01,0.26,0.08,0.46,0.21,0.61c0.14,0.15,0.31,0.22,0.51,0.22
			c0.14,0,0.25-0.04,0.35-0.11C87.61,36.76,87.68,36.64,87.73,36.47z M87.78,35.58c-0.01-0.26-0.07-0.45-0.2-0.58
			c-0.13-0.13-0.28-0.2-0.46-0.2c-0.19,0-0.35,0.07-0.48,0.21c-0.13,0.14-0.19,0.33-0.18,0.57H87.78z"/>
		<path class="st0" d="M92.4,37.53h-0.88v-1.7c0-0.36-0.02-0.59-0.06-0.7c-0.04-0.11-0.1-0.19-0.18-0.25s-0.19-0.09-0.31-0.09
			c-0.15,0-0.29,0.04-0.41,0.13c-0.12,0.08-0.2,0.19-0.25,0.33c-0.04,0.14-0.07,0.39-0.07,0.77v1.51h-0.88V34.2h0.82v0.49
			c0.29-0.38,0.66-0.56,1.1-0.56c0.19,0,0.37,0.04,0.53,0.11s0.28,0.16,0.37,0.27c0.08,0.11,0.14,0.23,0.17,0.37
			c0.03,0.14,0.05,0.34,0.05,0.59V37.53z"/>
		<path class="st0" d="M93.3,33.75v-0.82h0.88v0.82H93.3z M93.3,37.53V34.2h0.88v3.33H93.3z"/>
		<path class="st0" d="M98.11,37.53h-0.88v-1.7c0-0.36-0.02-0.59-0.06-0.7c-0.04-0.11-0.1-0.19-0.18-0.25
			c-0.08-0.06-0.19-0.09-0.31-0.09c-0.15,0-0.29,0.04-0.41,0.13c-0.12,0.08-0.2,0.19-0.25,0.33c-0.05,0.14-0.07,0.39-0.07,0.77v1.51
			h-0.88V34.2h0.82v0.49c0.29-0.38,0.66-0.56,1.1-0.56c0.19,0,0.37,0.04,0.53,0.11s0.28,0.16,0.37,0.27
			c0.08,0.11,0.14,0.23,0.17,0.37c0.03,0.14,0.05,0.34,0.05,0.59V37.53z"/>
		<path class="st0" d="M98.93,37.75l1.01,0.12c0.02,0.12,0.06,0.2,0.12,0.24c0.08,0.06,0.22,0.09,0.4,0.09c0.23,0,0.4-0.03,0.52-0.1
			c0.08-0.05,0.14-0.12,0.18-0.22c0.03-0.07,0.04-0.21,0.04-0.4V37c-0.26,0.36-0.6,0.54-1,0.54c-0.45,0-0.8-0.19-1.06-0.57
			c-0.2-0.3-0.31-0.67-0.31-1.12c0-0.56,0.13-0.99,0.4-1.28c0.27-0.29,0.6-0.44,1-0.44c0.41,0,0.75,0.18,1.02,0.54V34.2h0.83v2.99
			c0,0.39-0.03,0.69-0.1,0.88c-0.06,0.19-0.16,0.35-0.27,0.46c-0.12,0.11-0.27,0.2-0.47,0.26c-0.2,0.06-0.44,0.09-0.74,0.09
			c-0.57,0-0.97-0.1-1.2-0.29c-0.24-0.19-0.35-0.44-0.35-0.74C98.92,37.83,98.92,37.8,98.93,37.75z M99.71,35.8
			c0,0.35,0.07,0.61,0.21,0.78s0.31,0.25,0.51,0.25c0.22,0,0.4-0.08,0.55-0.25c0.15-0.17,0.22-0.42,0.22-0.75
			c0-0.35-0.07-0.6-0.21-0.77c-0.14-0.17-0.32-0.25-0.54-0.25c-0.21,0-0.39,0.08-0.52,0.25S99.71,35.46,99.71,35.8z"/>
		<path class="st0" d="M104.49,36.04l0.9-0.09c0.05,0.3,0.16,0.53,0.33,0.67c0.17,0.14,0.39,0.21,0.67,0.21
			c0.3,0,0.52-0.06,0.68-0.19s0.23-0.27,0.23-0.44c0-0.11-0.03-0.2-0.1-0.28c-0.06-0.08-0.18-0.14-0.33-0.2
			c-0.11-0.04-0.36-0.1-0.74-0.2c-0.5-0.12-0.85-0.28-1.05-0.45c-0.28-0.25-0.42-0.56-0.42-0.93c0-0.23,0.07-0.45,0.2-0.66
			c0.13-0.2,0.32-0.36,0.57-0.47c0.25-0.11,0.55-0.16,0.91-0.16c0.58,0,1.01,0.13,1.3,0.38c0.29,0.25,0.44,0.59,0.46,1.01
			l-0.93,0.04c-0.04-0.24-0.13-0.41-0.26-0.51c-0.13-0.1-0.33-0.16-0.59-0.16c-0.27,0-0.48,0.06-0.63,0.17
			c-0.1,0.07-0.15,0.17-0.15,0.29c0,0.11,0.05,0.2,0.14,0.28c0.12,0.1,0.4,0.2,0.85,0.31c0.45,0.11,0.79,0.22,1,0.33
			c0.22,0.11,0.39,0.27,0.51,0.47c0.12,0.2,0.18,0.44,0.18,0.73c0,0.26-0.07,0.51-0.22,0.74c-0.15,0.23-0.35,0.4-0.62,0.51
			c-0.27,0.11-0.6,0.17-1,0.17c-0.58,0-1.03-0.13-1.34-0.4C104.74,36.94,104.55,36.55,104.49,36.04z"/>
		<path class="st0" d="M108.94,34.2h0.81v0.45c0.29-0.35,0.64-0.53,1.04-0.53c0.21,0,0.4,0.04,0.56,0.13
			c0.16,0.09,0.29,0.22,0.39,0.4c0.15-0.18,0.3-0.31,0.47-0.4c0.17-0.09,0.35-0.13,0.54-0.13c0.24,0,0.45,0.05,0.62,0.15
			c0.17,0.1,0.3,0.25,0.38,0.44c0.06,0.14,0.09,0.37,0.09,0.69v2.13h-0.88v-1.9c0-0.33-0.03-0.54-0.09-0.64
			c-0.08-0.13-0.21-0.19-0.38-0.19c-0.12,0-0.24,0.04-0.35,0.11c-0.11,0.07-0.19,0.19-0.24,0.33c-0.05,0.15-0.07,0.37-0.07,0.69v1.6
			h-0.88v-1.83c0-0.32-0.02-0.53-0.05-0.63s-0.08-0.16-0.15-0.21c-0.07-0.05-0.16-0.07-0.27-0.07c-0.14,0-0.26,0.04-0.37,0.11
			c-0.11,0.07-0.19,0.18-0.23,0.32c-0.05,0.14-0.07,0.37-0.07,0.69v1.62h-0.88V34.2z"/>
		<path class="st0" d="M114.72,33.75v-0.82h0.88v0.82H114.72z M114.72,37.53V34.2h0.88v3.33H114.72z"/>
		<path class="st0" d="M116.5,37.53v-4.6h0.88v4.6H116.5z"/>
		<path class="st0" d="M120.22,36.47l0.88,0.15c-0.11,0.32-0.29,0.57-0.53,0.74c-0.24,0.17-0.55,0.25-0.91,0.25
			c-0.58,0-1.01-0.19-1.29-0.57c-0.22-0.3-0.33-0.69-0.33-1.15c0-0.55,0.14-0.98,0.43-1.3c0.29-0.31,0.65-0.47,1.09-0.47
			c0.5,0,0.89,0.16,1.17,0.49c0.29,0.33,0.42,0.83,0.41,1.5h-2.21c0.01,0.26,0.08,0.46,0.21,0.61c0.14,0.15,0.31,0.22,0.51,0.22
			c0.14,0,0.25-0.04,0.35-0.11C120.1,36.76,120.17,36.64,120.22,36.47z M120.27,35.58c-0.01-0.26-0.07-0.45-0.2-0.58
			c-0.13-0.13-0.28-0.2-0.46-0.2c-0.19,0-0.35,0.07-0.48,0.21c-0.13,0.14-0.19,0.33-0.19,0.57H120.27z"/>
		<path class="st0" d="M121.55,36.58l0.88-0.13c0.04,0.17,0.11,0.3,0.23,0.39c0.11,0.09,0.28,0.13,0.48,0.13
			c0.23,0,0.4-0.04,0.51-0.13c0.08-0.06,0.12-0.14,0.12-0.24c0-0.07-0.02-0.12-0.06-0.17c-0.04-0.04-0.14-0.08-0.29-0.12
			c-0.71-0.16-1.16-0.3-1.35-0.43c-0.26-0.18-0.4-0.43-0.4-0.75c0-0.29,0.11-0.53,0.34-0.73c0.23-0.2,0.58-0.29,1.06-0.29
			c0.46,0,0.79,0.07,1.02,0.22c0.22,0.15,0.37,0.37,0.46,0.66l-0.83,0.15c-0.04-0.13-0.1-0.23-0.2-0.3c-0.1-0.07-0.24-0.1-0.43-0.1
			c-0.23,0-0.4,0.03-0.5,0.1c-0.07,0.05-0.1,0.11-0.1,0.18c0,0.06,0.03,0.12,0.09,0.16c0.08,0.06,0.35,0.14,0.82,0.25
			c0.47,0.11,0.8,0.24,0.98,0.39c0.18,0.16,0.28,0.38,0.28,0.66c0,0.31-0.13,0.57-0.38,0.79c-0.26,0.22-0.63,0.33-1.13,0.33
			c-0.45,0-0.81-0.09-1.08-0.28C121.8,37.15,121.63,36.9,121.55,36.58z"/>
		<path class="st0" d="M126.91,36.58l0.88-0.13c0.04,0.17,0.11,0.3,0.23,0.39c0.11,0.09,0.28,0.13,0.48,0.13
			c0.23,0,0.4-0.04,0.51-0.13c0.08-0.06,0.12-0.14,0.12-0.24c0-0.07-0.02-0.12-0.06-0.17c-0.04-0.04-0.14-0.08-0.29-0.12
			c-0.71-0.16-1.16-0.3-1.35-0.43c-0.26-0.18-0.4-0.43-0.4-0.75c0-0.29,0.11-0.53,0.34-0.73c0.23-0.2,0.58-0.29,1.06-0.29
			c0.46,0,0.79,0.07,1.02,0.22c0.22,0.15,0.37,0.37,0.46,0.66l-0.83,0.15c-0.04-0.13-0.1-0.23-0.2-0.3c-0.1-0.07-0.24-0.1-0.43-0.1
			c-0.23,0-0.4,0.03-0.5,0.1c-0.07,0.05-0.1,0.11-0.1,0.18c0,0.06,0.03,0.12,0.09,0.16c0.08,0.06,0.35,0.14,0.82,0.25
			c0.47,0.11,0.8,0.24,0.98,0.39c0.18,0.16,0.28,0.38,0.28,0.66c0,0.31-0.13,0.57-0.38,0.79c-0.26,0.22-0.63,0.33-1.13,0.33
			c-0.45,0-0.81-0.09-1.08-0.28C127.16,37.15,126.99,36.9,126.91,36.58z"/>
		<path class="st0" d="M130.79,33.75v-0.82h0.88v0.82H130.79z M130.79,37.53V34.2h0.88v3.33H130.79z"/>
		<path class="st0" d="M135.61,37.53h-0.88v-1.7c0-0.36-0.02-0.59-0.06-0.7c-0.04-0.11-0.1-0.19-0.18-0.25
			c-0.08-0.06-0.19-0.09-0.31-0.09c-0.15,0-0.29,0.04-0.41,0.13c-0.12,0.08-0.2,0.19-0.25,0.33c-0.05,0.14-0.07,0.39-0.07,0.77v1.51
			h-0.88V34.2h0.82v0.49c0.29-0.38,0.66-0.56,1.1-0.56c0.19,0,0.37,0.04,0.53,0.11c0.16,0.07,0.28,0.16,0.37,0.27
			c0.08,0.11,0.14,0.23,0.17,0.37c0.03,0.14,0.05,0.34,0.05,0.59V37.53z"/>
		<path class="st0" d="M139.41,35.19l-0.87,0.16c-0.03-0.17-0.1-0.3-0.2-0.39c-0.1-0.09-0.24-0.13-0.4-0.13
			c-0.22,0-0.39,0.08-0.53,0.23c-0.13,0.15-0.2,0.41-0.2,0.76c0,0.4,0.07,0.67,0.2,0.84c0.13,0.16,0.31,0.24,0.53,0.24
			c0.17,0,0.3-0.05,0.41-0.14c0.11-0.1,0.18-0.26,0.23-0.49l0.87,0.15c-0.09,0.4-0.26,0.7-0.52,0.9c-0.26,0.2-0.6,0.3-1.03,0.3
			c-0.49,0-0.88-0.15-1.17-0.46c-0.29-0.31-0.43-0.73-0.43-1.28c0-0.55,0.15-0.98,0.44-1.28s0.68-0.46,1.18-0.46
			c0.41,0,0.73,0.09,0.97,0.26C139.13,34.56,139.3,34.83,139.41,35.19z"/>
		<path class="st0" d="M142.01,36.47l0.88,0.15c-0.11,0.32-0.29,0.57-0.53,0.74c-0.24,0.17-0.55,0.25-0.91,0.25
			c-0.58,0-1.01-0.19-1.29-0.57c-0.22-0.3-0.33-0.69-0.33-1.15c0-0.55,0.14-0.98,0.43-1.3c0.29-0.31,0.65-0.47,1.09-0.47
			c0.5,0,0.89,0.16,1.17,0.49c0.29,0.33,0.42,0.83,0.41,1.5h-2.21c0.01,0.26,0.08,0.46,0.21,0.61c0.14,0.15,0.31,0.22,0.51,0.22
			c0.14,0,0.25-0.04,0.35-0.11C141.89,36.76,141.96,36.64,142.01,36.47z M142.06,35.58c-0.01-0.26-0.07-0.45-0.2-0.58
			c-0.13-0.13-0.28-0.2-0.46-0.2c-0.19,0-0.35,0.07-0.48,0.21c-0.13,0.14-0.19,0.33-0.19,0.57H142.06z"/>
		<path class="st0" d="M147.5,37.53h-0.88v-3.32c-0.32,0.3-0.7,0.52-1.14,0.67v-0.8c0.23-0.08,0.48-0.22,0.75-0.43
			c0.27-0.21,0.45-0.46,0.56-0.74h0.72V37.53z"/>
		<path class="st0" d="M148.84,36.47l0.85-0.09c0.02,0.17,0.08,0.3,0.16,0.39c0.09,0.08,0.2,0.13,0.35,0.13
			c0.18,0,0.34-0.08,0.46-0.25c0.13-0.17,0.21-0.51,0.24-1.04c-0.22,0.26-0.5,0.39-0.83,0.39c-0.36,0-0.67-0.14-0.94-0.42
			c-0.26-0.28-0.39-0.64-0.39-1.09c0-0.47,0.14-0.84,0.42-1.13c0.28-0.29,0.63-0.43,1.06-0.43c0.47,0,0.85,0.18,1.15,0.54
			c0.3,0.36,0.45,0.95,0.45,1.78c0,0.84-0.16,1.45-0.47,1.82c-0.31,0.37-0.72,0.56-1.22,0.56c-0.36,0-0.65-0.1-0.87-0.29
			C149.04,37.14,148.9,36.85,148.84,36.47z M150.83,34.54c0-0.28-0.07-0.5-0.2-0.66c-0.13-0.16-0.28-0.24-0.45-0.24
			c-0.16,0-0.3,0.06-0.41,0.19c-0.11,0.13-0.16,0.34-0.16,0.63c0,0.3,0.06,0.52,0.18,0.65c0.12,0.14,0.26,0.21,0.44,0.21
			c0.17,0,0.31-0.07,0.43-0.2C150.78,35,150.83,34.8,150.83,34.54z"/>
		<path class="st0" d="M152.41,36.47l0.85-0.09c0.02,0.17,0.08,0.3,0.16,0.39c0.09,0.08,0.2,0.13,0.35,0.13
			c0.18,0,0.34-0.08,0.46-0.25c0.13-0.17,0.21-0.51,0.24-1.04c-0.22,0.26-0.5,0.39-0.83,0.39c-0.36,0-0.67-0.14-0.94-0.42
			c-0.26-0.28-0.39-0.64-0.39-1.09c0-0.47,0.14-0.84,0.42-1.13c0.28-0.29,0.63-0.43,1.06-0.43c0.47,0,0.85,0.18,1.15,0.54
			c0.3,0.36,0.45,0.95,0.45,1.78c0,0.84-0.16,1.45-0.47,1.82c-0.31,0.37-0.72,0.56-1.22,0.56c-0.36,0-0.65-0.1-0.87-0.29
			C152.62,37.14,152.47,36.85,152.41,36.47z M154.41,34.54c0-0.28-0.07-0.5-0.2-0.66c-0.13-0.16-0.28-0.24-0.45-0.24
			c-0.16,0-0.3,0.06-0.41,0.19c-0.11,0.13-0.16,0.34-0.16,0.63c0,0.3,0.06,0.52,0.18,0.65c0.12,0.14,0.26,0.21,0.44,0.21
			c0.17,0,0.31-0.07,0.43-0.2C154.35,35,154.41,34.8,154.41,34.54z"/>
		<path class="st0" d="M158.22,37.53h-0.88v-3.32c-0.32,0.3-0.7,0.52-1.14,0.67v-0.8c0.23-0.08,0.48-0.22,0.75-0.43
			c0.27-0.21,0.45-0.46,0.56-0.74h0.72V37.53z"/>
	</g>
</g>
</svg>
