<?xml version="1.0" encoding="utf-8"?>
<!-- Generator: Adobe Illustrator 25.2.0, SVG Export Plug-In . SVG Version: 6.00 Build 0)  -->
<svg version="1.1" id="Layer_1" xmlns="http://www.w3.org/2000/svg" xmlns:xlink="http://www.w3.org/1999/xlink" x="0px" y="0px"
	 viewBox="0 0 56 56" style="enable-background:new 0 0 56 56;" xml:space="preserve">
<style type="text/css">
	.st0{fill-rule:evenodd;clip-rule:evenodd;fill:#EC1C24;}
</style>
<path class="st0" d="M18.88,0.98c-3.93,0.7-7.02,3.57-7.97,7.41c-0.44,1.77-0.37,2.77,0.66,9.32c0.63,3.99,0.96,5.85,1.11,6.14
	c0.7,1.37,3.41,2.7,6.91,3.39l0.62,0.12l-0.14,0.53c-0.2,0.76-0.69,1.61-1.28,2.21l-0.51,0.53h-2.23c-2.09,0-2.24,0.01-2.47,0.22
	c-0.48,0.45-0.46,0.54,1.27,4.44c1.06,2.4,1.68,3.93,1.76,4.36c0.06,0.36,0.17,1.54,0.23,2.62c0.22,3.78,1.09,7.31,2.56,10.39
	c0.89,1.87,1.58,2.4,3.07,2.4c0.77,0,0.95-0.04,1.47-0.33c0.63-0.35,1.16-0.98,1.41-1.68c0.08-0.23,0.18-1.38,0.24-2.7
	c0.12-2.61,0.38-4.74,0.87-7.16c0.45-2.19,0.53-2.41,0.97-2.71c0.44-0.3,0.77-0.31,1.28-0.07c0.49,0.23,0.61,0.5,0.95,2.06
	c0.66,3.11,0.92,5.17,1.05,8.31c0.08,2.03,0.09,2.11,0.4,2.67c1.12,2.06,3.81,2.23,5.19,0.32c0.65-0.89,1.86-4.1,2.41-6.38
	c0.45-1.86,0.65-3.31,0.77-5.62c0.06-1.1,0.16-2.21,0.23-2.46c0.07-0.25,0.84-2.05,1.7-4c0.98-2.22,1.57-3.68,1.57-3.9
	c0-0.26-0.08-0.42-0.29-0.59c-0.27-0.21-0.43-0.23-2.46-0.23h-2.17l-0.43-0.39c-0.69-0.63-1.21-1.54-1.47-2.58
	c-0.07-0.28-0.05-0.29,0.78-0.47c2.66-0.58,4.77-1.44,5.89-2.39c0.89-0.77,0.94-0.94,1.9-7.29c0.95-6.22,1.03-7.23,0.7-8.84
	c-0.19-0.92-0.7-2.2-1.27-3.17c-0.56-0.95-2.38-2.71-3.4-3.29c-1.89-1.06-3.39-1.38-6.15-1.3c-1.59,0.05-2,0.1-2.82,0.34
	c-1.12,0.34-2.05,0.78-2.99,1.44l-0.67,0.47l-0.58-0.43c-0.78-0.58-2.17-1.24-3.22-1.53C23.62,1,23.1,0.95,21.44,0.92
	C20.32,0.9,19.18,0.93,18.88,0.98z M18.98,2.79c-3.77,0.7-6.53,3.99-6.52,7.8c0,0.75,0.19,2.32,0.67,5.38
	c0.37,2.37,0.68,4.33,0.7,4.35c0.02,0.02,0.45-0.19,0.96-0.46c4-2.13,12.66-2.96,19.94-1.91c2.98,0.43,4.93,0.97,6.7,1.86
	c0.58,0.29,1.06,0.52,1.07,0.51c0.01-0.01,0.32-2.04,0.7-4.51c0.61-3.97,0.68-4.61,0.63-5.58c-0.11-2.08-0.84-3.69-2.37-5.2
	c-1.39-1.37-2.64-2.02-4.5-2.31c-1.06-0.17-3.66-0.07-4.54,0.17c-1.03,0.28-2.33,0.97-3.21,1.69c-1.02,0.84-1.19,0.85-2.07,0.09
	c-1.24-1.07-2.54-1.69-4.08-1.93C22.12,2.59,19.92,2.61,18.98,2.79z M18.84,4.53C17.46,4.87,15.87,6,15.09,7.22
	c-0.43,0.67-0.83,1.81-0.93,2.65l-0.08,0.63L15,10.48l0.92-0.03l0.08-0.62c0.16-1.25,1.16-2.64,2.33-3.21
	c0.31-0.15,0.86-0.33,1.23-0.4l0.68-0.13V5.23V4.37l-0.41,0.01C19.6,4.39,19.16,4.46,18.84,4.53z M25.65,19.32
	c-4.52,0.27-7.83,0.96-10.07,2.09c-1.37,0.69-1.69,1.32-1.02,1.97c0.71,0.7,2.4,1.41,4.56,1.92l1.09,0.26L20.28,25
	c0.15-1.17,0.87-2.2,1.97-2.78l0.55-0.29l5.15-0.03c4.98-0.03,5.17-0.02,5.76,0.2c1.22,0.46,2.27,1.81,2.27,2.93
	c0,0.55,0.06,0.56,1.2,0.3c2.8-0.65,4.92-1.78,4.92-2.61c0-0.54-1.26-1.38-2.97-1.96C35.93,19.64,30.27,19.04,25.65,19.32z
	 M23,23.85c-0.79,0.39-0.93,0.75-1.02,2.6c-0.04,0.88-0.14,1.8-0.21,2.04c-0.15,0.48-0.72,1.69-0.88,1.85
	c-0.06,0.06-0.1,0.14-0.1,0.19c0,0.05,3.32,0.09,7.37,0.09h7.37l-0.48-0.96c-0.57-1.14-0.8-2.21-0.8-3.74c0-1.17-0.14-1.53-0.8-2.02
	c-0.3-0.22-0.43-0.23-5.14-0.26C23.57,23.62,23.45,23.63,23,23.85z M15.56,32.51c0.03,0.08,0.61,1.37,1.28,2.87
	c0.67,1.5,1.31,3.08,1.43,3.5c0.14,0.51,0.24,1.48,0.32,2.9c0.2,3.85,0.96,7.01,2.41,10.12c0.44,0.94,0.57,1.13,0.9,1.29
	c0.48,0.23,0.64,0.23,1.12,0.03c0.59-0.25,0.68-0.58,0.81-3.23c0.21-4.08,1.02-8.86,1.7-10.02c1.18-2.02,4.24-1.91,5.31,0.19
	c0.67,1.32,1.62,7.51,1.64,10.69c0.01,1.5,0.13,1.93,0.65,2.28c0.45,0.3,1.07,0.28,1.45-0.05c0.29-0.25,1.16-2.08,1.61-3.37
	c0.91-2.6,1.38-5.12,1.53-8.2c0.06-1.17,0.17-2.23,0.27-2.62c0.14-0.51,2.24-5.42,2.7-6.32c0.09-0.18-0.54-0.19-12.55-0.19
	C18.08,32.38,15.52,32.4,15.56,32.51z"/>
</svg>
