<?xml version="1.0" encoding="utf-8"?>
<!-- Generator: Adobe Illustrator 25.2.0, SVG Export Plug-In . SVG Version: 6.00 Build 0)  -->
<svg version="1.1" id="Layer_1" xmlns="http://www.w3.org/2000/svg" xmlns:xlink="http://www.w3.org/1999/xlink" x="0px" y="0px"
	 viewBox="0 0 56 56" style="enable-background:new 0 0 56 56;" xml:space="preserve">
<style type="text/css">
	.st0{fill-rule:evenodd;clip-rule:evenodd;fill:#EC1C24;}
</style>
<path class="st0" d="M25.85,1.25c-0.41,0.18-0.89,0.78-0.98,1.23c-0.07,0.36,0.33,4.12,0.5,4.76c0.21,0.77,0.97,1.4,1.69,1.4h0.28
	v1.53c0,1.39,0.02,1.55,0.22,1.75c0.12,0.12,0.32,0.22,0.44,0.22s0.32-0.1,0.44-0.22c0.2-0.2,0.22-0.36,0.22-1.74V8.67l0.43-0.06
	c0.6-0.08,1.17-0.46,1.42-0.94c0.13-0.26,0.27-0.99,0.4-2.12c0.16-1.41,0.23-1.72,0.37-1.72c0.09,0,1.96,0.34,4.15,0.74l3.98,0.74
	l0.12,0.35c0.24,0.71,0.78,1.3,1.49,1.66l0.69,0.34h6.75c6.4,0,6.76-0.01,6.93-0.2c0.24-0.26,0.23-0.71-0.02-0.93
	c-0.18-0.16-0.61-0.18-3.94-0.18h-3.74V5.6c0-0.83-0.17-1.11-0.68-1.11c-0.46,0-0.64,0.31-0.64,1.13v0.73l-2.16,0
	c-2.62,0-2.95-0.1-3.33-0.94c-0.26-0.59-0.22-1.08,0.12-1.56c0.49-0.68,0.32-0.67,7.52-0.67c7.36,0,7.08,0.03,7.01-0.75
	c-0.06-0.7,0.16-0.68-7.25-0.65C42.16,1.8,41.58,1.82,41.2,2c-0.59,0.27-1.32,0.98-1.55,1.5c-0.18,0.41-0.23,0.44-0.54,0.38
	c-6.68-1.22-7.89-1.46-7.99-1.64c-0.26-0.45-0.67-0.86-1-0.99C29.62,1.04,26.33,1.04,25.85,1.25z M26.31,2.58
	c-0.12,0.12-0.16,0.29-0.12,0.52c0.03,0.19,0.16,1.16,0.27,2.15c0.17,1.41,0.26,1.83,0.4,1.94c0.12,0.08,0.55,0.14,1.14,0.14
	c1.39,0,1.34,0.08,1.63-2.51c0.23-2.05,0.24-2.13,0.05-2.27C29.38,2.32,26.54,2.35,26.31,2.58z M17.33,11.96
	c-1.54,0.25-3.02,0.83-4.2,1.64c-3.35,2.29-4.8,7.16-3.77,12.65c0.66,3.5,1.76,6.46,4.14,11.1c0.74,1.44,1.5,3.03,1.69,3.52
	c0.44,1.15,1,3.28,1.54,5.89c0.61,2.94,0.85,3.92,1.17,4.92c0.88,2.69,2.07,3.91,3.81,3.92c0.95,0,1.55-0.28,2.04-0.94
	c0.95-1.29,1.34-3.07,2-9.16c0.65-5.97,1.24-8.01,2.3-8.01c0.54,0,0.87,0.51,1.31,2.03c0.33,1.15,0.62,3.07,1.05,6.96
	c0.57,5.19,0.96,6.88,1.86,8.14c0.5,0.7,1.05,0.96,2.02,0.97c1.47,0.01,2.39-0.66,3.24-2.38c0.57-1.15,0.94-2.49,1.74-6.22
	c1.11-5.16,1.35-5.87,3.27-9.61c2.4-4.67,3.58-7.88,4.23-11.51c0.29-1.63,0.27-4.79-0.04-6.13c-0.96-4.14-3.33-6.65-7.22-7.62
	c-0.78-0.2-1.28-0.24-2.66-0.24c-2.29,0-3.61,0.29-5.89,1.29c-0.5,0.22-1.32,0.48-1.84,0.58c-1.24,0.24-2.39,0.1-3.74-0.46
	c-1.47-0.61-2.62-1-3.58-1.2C20.63,11.84,18.43,11.78,17.33,11.96z M17.17,13.4c-4.23,0.86-6.57,3.89-6.75,8.77
	c-0.04,0.93-0.01,1.98,0.07,2.62c0.45,3.63,1.95,7.82,4.54,12.62c1.46,2.71,2.01,4.32,2.91,8.58c1.11,5.21,1.48,6.43,2.27,7.48
	c0.56,0.73,1.84,1.05,2.31,0.57c0.83-0.83,1.22-2.66,1.92-9.03c0.5-4.52,0.96-6.62,1.71-7.75c1.16-1.76,3.17-1.43,4.1,0.67
	c0.58,1.32,0.97,3.46,1.46,8.12c0.56,5.27,1.09,7.51,1.91,8.05c0.36,0.23,1.27,0.16,1.67-0.14c1.07-0.79,1.55-2.12,2.64-7.31
	c1.03-4.89,1.54-6.4,3.11-9.35c4.01-7.52,5.36-13.24,4.22-17.8c-0.35-1.38-1.2-2.98-2.06-3.85c-1.47-1.49-3.74-2.41-5.94-2.41
	c-0.54,0-0.64,0.03-0.8,0.27c-0.23,0.35-0.87,0.39-1.07,0.05c-0.08-0.12-0.24-0.22-0.37-0.22c-0.49,0-2.35,0.55-3.44,1.01
	c-1.29,0.55-1.95,0.73-3.08,0.84l-0.79,0.07l0.54,0.35c0.3,0.19,0.71,0.38,0.93,0.42c0.45,0.08,0.88,0.43,0.88,0.71
	c0,0.1-0.09,0.3-0.2,0.44c-0.16,0.2-0.3,0.25-0.67,0.23c-0.77-0.03-1.5-0.45-2.65-1.52c-0.65-0.6-1.35-1.14-1.8-1.37
	c-0.9-0.47-2.64-1.04-3.48-1.14l-0.62-0.07l0.18,0.34c0.23,0.45,0.22,0.63-0.04,0.9c-0.47,0.47-0.99,0.18-1.42-0.79l-0.23-0.52
	l-0.62,0.01C18.16,13.25,17.56,13.32,17.17,13.4z M34.26,14.12c-0.42,0.43-1.01,1.52-1.01,1.87c0,0.34,0.32,0.63,0.68,0.63
	c0.32,0,0.42-0.1,0.81-0.83c0.16-0.29,0.38-0.64,0.49-0.76c0.29-0.31,0.27-0.87-0.03-1.08C34.84,13.7,34.63,13.74,34.26,14.12z
	 M21.24,14.73c-0.22,0.09-0.37,0.56-0.24,0.79c0.06,0.11,0.44,0.52,0.85,0.92c0.82,0.8,1.2,0.92,1.5,0.49
	c0.25-0.36,0.21-0.59-0.18-1.07C22.46,14.97,21.72,14.54,21.24,14.73z M33.3,17.08c-0.31,0.18-0.38,0.31-0.38,0.76
	c0,0.26-0.09,0.51-0.26,0.71c-0.14,0.17-0.29,0.41-0.33,0.54c-0.09,0.3,0.3,0.81,0.64,0.81c0.62,0,1.27-0.99,1.26-1.92
	c0-0.6-0.06-0.72-0.4-0.91C33.55,16.93,33.58,16.93,33.3,17.08z M22.97,17.67c-0.34,0.42-0.06,1.18,0.69,1.88
	c0.63,0.58,0.9,0.66,1.27,0.39c0.47-0.35,0.43-0.65-0.17-1.22c-0.29-0.28-0.61-0.66-0.72-0.86c-0.16-0.3-0.25-0.36-0.56-0.36
	C23.27,17.5,23.04,17.58,22.97,17.67z M31.01,19.38c-0.24,0.05-0.7,0.13-1.03,0.17c-0.47,0.06-0.64,0.14-0.82,0.38
	c-0.21,0.28-0.22,0.33-0.06,0.6c0.13,0.24,0.26,0.3,0.65,0.33c0.6,0.04,1.71-0.16,2.05-0.37c0.17-0.11,0.25-0.26,0.25-0.52
	C32.05,19.42,31.71,19.23,31.01,19.38z M25.77,19.56c-0.23,0.25-0.23,0.72-0.02,0.93c0.16,0.16,0.84,0.33,1.84,0.44
	c0.46,0.05,0.56,0.03,0.79-0.21c0.6-0.6,0.22-1.01-1.12-1.22C26.02,19.32,25.99,19.32,25.77,19.56z"/>
</svg>
