<?xml version="1.0" encoding="utf-8"?>
<!-- Generator: Adobe Illustrator 25.2.0, SVG Export Plug-In . SVG Version: 6.00 Build 0)  -->
<svg version="1.1" id="Layer_1" xmlns="http://www.w3.org/2000/svg" xmlns:xlink="http://www.w3.org/1999/xlink" x="0px" y="0px"
	 viewBox="0 0 56 56" style="enable-background:new 0 0 56 56;" xml:space="preserve">
<style type="text/css">
	.st0{fill-rule:evenodd;clip-rule:evenodd;fill:#EC1C24;}
</style>
<path class="st0" d="M18.21,0.64c-2.12,0.06-2.34,0.09-2.82,0.32c-1.17,0.58-1.72,2.07-1.19,3.25c0.11,0.24,0.46,0.67,0.78,0.95
	l0.58,0.51l-0.07,1.32c-0.04,0.82-0.22,2.05-0.46,3.26c-0.46,2.25-0.46,2.91,0,3.68c0.55,0.95,1.55,1.25,2.75,0.85l0.66-0.22
	l0.38,0.37c0.21,0.2,0.57,0.45,0.79,0.54c0.8,0.33,2.14,0.14,2.98-0.44L23,14.75l0.78,0.36c0.69,0.32,0.88,0.36,1.71,0.36
	c0.85,0,0.98-0.03,1.57-0.36l0.64-0.36l0.21,0.27c0.12,0.15,0.47,0.4,0.78,0.55c1.01,0.5,2.22,0.34,3.12-0.42
	c0.28-0.24,0.39-0.27,0.57-0.18c0.12,0.06,0.46,0.17,0.77,0.23c0.99,0.21,2.06-0.28,2.5-1.16c0.24-0.46,0.26-1.27,0.07-2.96
	c-0.2-1.86-0.17-3.64,0.09-4.74c0.11-0.49,0.19-0.61,0.41-0.67c0.15-0.04,1.18-0.08,2.3-0.08c5.85-0.02,16.59-0.27,16.84-0.38
	c0.21-0.09,0.28-0.22,0.31-0.53c0.06-0.76,0.13-0.75-4.96-0.63c-2.46,0.06-11.24,0.16-19.5,0.22C14.44,4.4,15.8,4.45,15.46,3.64
	c-0.14-0.33-0.14-0.45-0.02-0.77c0.08-0.21,0.28-0.49,0.45-0.61c0.31-0.23,0.38-0.23,6.4-0.23c3.91,0,7.25,0.06,9.32,0.16
	c4.55,0.23,23.44,0.18,23.82-0.06c0.29-0.19,0.34-0.82,0.08-1.03c-0.14-0.11-2.16-0.14-10.14-0.12c-7.29,0.02-11.05-0.02-13.97-0.14
	C26.43,0.63,21.22,0.56,18.21,0.64z M17.05,5.76c-0.15,0.04-0.19,0.3-0.24,1.49c-0.05,0.98-0.17,1.95-0.41,3.03
	c-0.19,0.87-0.35,1.87-0.36,2.23c-0.02,0.58,0.01,0.66,0.29,0.91c0.35,0.3,0.68,0.28,1.4-0.08c0.22-0.11,0.59-0.21,0.81-0.21
	c0.35,0,0.48,0.08,0.91,0.55c0.31,0.34,0.63,0.57,0.83,0.61c0.47,0.09,1.19-0.13,1.82-0.56c0.31-0.21,0.68-0.37,0.86-0.37
	c0.17,0,0.66,0.18,1.09,0.41c0.64,0.33,0.9,0.41,1.41,0.41c0.55,0,0.7-0.05,1.22-0.41c0.87-0.6,1.25-0.57,2,0.14
	c0.89,0.84,1.47,0.87,2.31,0.1c0.61-0.56,1.13-0.66,1.78-0.33c0.59,0.3,1.16,0.3,1.46,0c0.21-0.21,0.23-0.31,0.16-1.34
	c-0.17-2.85-0.2-4.45-0.07-5.36c0.07-0.52,0.15-1.03,0.19-1.12c0.05-0.14-0.17-0.16-1.73-0.13l-1.79,0.03l-0.03,1.09
	c-0.02,0.6,0.03,1.51,0.11,2.02c0.08,0.51,0.13,1.03,0.11,1.15c-0.05,0.44-0.66,0.64-1.04,0.36c-0.3-0.22-0.53-1.61-0.53-3.23V5.69
	h-1.62H26.4l-0.11,1.55c-0.1,1.42-0.13,1.56-0.36,1.75c-0.33,0.27-0.51,0.26-0.83-0.06c-0.25-0.25-0.26-0.32-0.21-1.34
	c0.03-0.59,0.07-1.26,0.09-1.49l0.04-0.41h-1.58h-1.58l0,0.85c0,0.82-0.24,2.86-0.38,3.21c-0.04,0.1-0.19,0.23-0.33,0.3
	c-0.33,0.15-0.78-0.02-0.87-0.33c-0.04-0.11,0.02-0.83,0.11-1.59c0.1-0.8,0.15-1.61,0.11-1.91l-0.07-0.53l-1.6,0.01
	C17.95,5.71,17.15,5.73,17.05,5.76z M7.8,9.75c-1.34,0.51-2.44,2.08-2.44,3.47c0,0.93,0.26,1.48,1.1,2.25c2.2,2.03,5.06,1,5.59-2.02
	c0.13-0.76-0.01-1.74-0.35-2.4C11.02,9.73,9.32,9.16,7.8,9.75z M8.12,11.11c-0.83,0.42-1.45,1.34-1.45,2.17c0,0.88,1.41,2,2.39,1.89
	c0.63-0.07,0.98-0.35,1.37-1.07c0.28-0.53,0.31-0.67,0.27-1.42c-0.04-0.64-0.1-0.91-0.29-1.18C9.89,10.78,9.06,10.64,8.12,11.11z
	 M40.24,12.18c-0.66,0.25-1.05,0.6-1.35,1.21c-0.92,1.89,0.48,4.37,2.46,4.36c1.49,0,2.95-1.37,2.95-2.77c0-1-0.84-2.16-1.91-2.64
	C41.75,12.07,40.74,11.99,40.24,12.18z M40.3,13.7c-0.86,0.74-0.08,2.7,1.08,2.7c0.71,0,1.55-0.76,1.55-1.4
	C42.92,13.85,41.15,12.97,40.3,13.7z M16.46,17.84c-5.69,0.71-8.53,5.83-7.11,12.84c0.56,2.76,1.57,5.45,3.41,9
	c1.73,3.36,1.98,4.1,2.94,8.69c0.6,2.87,0.93,4.04,1.42,5.06c0.39,0.82,1.03,1.56,1.58,1.85c0.83,0.43,2.1,0.34,2.7-0.18
	c1.08-0.95,1.46-2.36,2.07-7.74c0.69-6.02,1.25-7.9,2.2-7.27c0.7,0.46,1.07,2.14,1.68,7.55c0.51,4.54,0.91,6.22,1.71,7.15
	c0.98,1.14,2.95,1,3.96-0.28c0.82-1.04,1.25-2.29,2-5.82c1-4.69,1.33-5.75,2.42-7.82c2.26-4.3,3.43-7.29,4.05-10.37
	c0.21-1.03,0.25-1.58,0.25-3.27c0-2.42-0.17-3.23-1.05-5.03c-1.24-2.52-3.47-4-6.59-4.38c-1.94-0.23-3.98,0.13-6.27,1.11
	c-0.92,0.39-1.2,0.46-2.06,0.51c-1.16,0.06-1.81-0.07-3-0.59c-1.18-0.52-2.54-0.89-3.75-1.02C17.82,17.7,17.55,17.71,16.46,17.84z
	 M16.08,19.31c-3.37,0.69-5.3,2.98-5.7,6.78c-0.37,3.5,1.01,8.31,3.89,13.6c1.31,2.39,1.78,3.83,2.69,8.12
	c0.88,4.17,1.34,5.46,2.13,6.07c0.48,0.37,1.22,0.42,1.56,0.12c0.58-0.52,0.95-2.27,1.5-7.06c0.22-1.89,0.47-3.83,0.56-4.31
	c0.48-2.53,1.27-3.83,2.42-3.98c1.21-0.16,2.12,0.77,2.65,2.72c0.3,1.09,0.48,2.35,0.88,5.89c0.53,4.72,1,6.63,1.7,6.89
	c0.63,0.24,1.42-0.15,1.91-0.94c0.41-0.66,0.85-2.17,1.42-4.84c1.08-5.05,1.31-5.76,2.95-8.94c2.31-4.48,3.38-7.54,3.72-10.65
	c0.44-4.02-0.87-7.33-3.45-8.67c-1.43-0.74-2.19-0.91-4.05-0.9c-1.88,0.01-2.6,0.16-4.39,0.93c-0.9,0.39-2.21,0.73-2.88,0.76
	c-0.29,0.01,0.23,0.33,0.85,0.51c0.78,0.23,1.02,0.69,0.57,1.14c-0.52,0.52-1.56,0.15-2.8-1c-1.08-1-1.55-1.3-2.75-1.73
	C19.73,19.17,17.68,18.98,16.08,19.31z M3.69,20.71c-1.25,0.35-2,1.89-1.61,3.29c0.38,1.34,2.07,2.26,3.52,1.91
	c0.7-0.17,1.5-0.91,1.7-1.59c0.44-1.49-0.18-2.92-1.51-3.47C5.21,20.61,4.28,20.55,3.69,20.71z M3.67,22.24
	c-0.14,0.14-0.29,0.46-0.33,0.71c-0.16,0.92,0.55,1.66,1.58,1.66c0.62,0,0.94-0.22,1.1-0.76c0.32-1.07-0.34-1.87-1.54-1.87
	C4.05,21.98,3.87,22.04,3.67,22.24z M45.72,23.43c-0.86,0.44-1.25,1.74-0.84,2.74c0.19,0.45,0.81,1,1.33,1.17
	c0.64,0.21,1.6,0.09,2.05-0.25c0.66-0.5,0.96-1.43,0.74-2.25C48.64,23.5,46.99,22.79,45.72,23.43z M46.23,24.73
	c-0.37,0.53-0.11,1.2,0.53,1.36c0.48,0.12,0.81-0.03,0.91-0.42c0.17-0.66-0.11-1.04-0.83-1.14C46.47,24.48,46.38,24.51,46.23,24.73z
	"/>
</svg>
