<?xml version="1.0" encoding="utf-8"?>
<!-- Generator: Adobe Illustrator 25.2.0, SVG Export Plug-In . SVG Version: 6.00 Build 0)  -->
<svg version="1.1" id="Layer_1" xmlns="http://www.w3.org/2000/svg" xmlns:xlink="http://www.w3.org/1999/xlink" x="0px" y="0px"
	 viewBox="0 0 48 49" style="enable-background:new 0 0 48 49;" xml:space="preserve">
<style type="text/css">
	.st0{fill:#1F84B5;}
</style>
<g>
	<path class="st0" d="M36.72,27.01c0.25-0.07,0.5-0.15,0.75-0.2c1.36-0.28,2.61-0.01,3.65,0.93c0.54,0.49,1.13,0.71,1.86,0.69
		c1.23-0.03,2.46-0.01,3.68-0.01c0.68,0,0.84,0.17,0.84,0.86c0,5.94,0,11.88,0,17.82c0,0.82-0.1,0.92-0.95,0.92
		c-13.13,0-26.27,0-39.4,0c-1.94,0-3.89,0-5.83,0c-0.68,0-0.82-0.15-0.82-0.82c0-5.99,0-11.97,0-17.96c0-0.65,0.17-0.81,0.83-0.83
		c1.32-0.03,2.64-0.08,3.96-0.08c0.75,0,1.22-0.47,1.72-0.91c0.07-0.06,0.05-0.25,0.04-0.38c-0.07-0.76-0.23-1.51-0.21-2.26
		c0.03-1.1,0.56-1.99,1.44-2.65c0.27-0.2,0.31-0.37,0.27-0.69c-0.76-5.5,3.4-10.64,8.92-11.05c0.6-0.04,1.21,0.03,1.81,0
		c0.25-0.01,0.56-0.07,0.75-0.23c3.97-3.23,8.14-6.19,12.51-8.85C32.83,1.13,33.24,1.01,33.6,1c4.32-0.02,8.64-0.01,12.96-0.01
		c0.79,0,0.93,0.14,0.93,0.91c0,1.15-0.02,2.3,0.01,3.45c0.01,0.44-0.15,0.72-0.49,0.97c-3.34,2.39-6.66,4.78-9.99,7.17
		c-0.05,0.04-0.1,0.08-0.17,0.14c1.67,1.92,2.48,4.16,2.45,6.71C39.27,22.88,38.3,25.05,36.72,27.01z M1.64,41.55
		c0.14,0,0.25,0.01,0.35,0c2.53-0.17,5.06-0.31,7.58-0.52c2.26-0.19,4.49-0.18,6.67,0.59c1.41,0.5,2.89,0.65,4.4,0.62
		c2.19-0.04,4.38-0.04,6.57,0c1.51,0.03,2.97-0.18,4.4-0.64c1.47-0.47,2.97-0.8,4.53-0.7c2.68,0.18,5.36,0.35,8.05,0.52
		c0.72,0.05,1.44,0.09,2.16,0.13c0-4.04,0-8.01,0-11.97c-0.05-0.02-0.08-0.05-0.11-0.05c-1.07,0-2.15-0.04-3.22,0
		c-1.04,0.04-1.9-0.27-2.67-0.98c-1.08-0.99-2.7-0.99-3.86-0.09c-0.35,0.27-0.76,0.48-1.11,0.75c-0.18,0.13-0.31,0.34-0.53,0.59
		c0.25,0.02,0.35,0.04,0.45,0.04c0.93,0,1.86,0,2.8,0c0.38,0,0.65,0.15,0.65,0.56c-0.01,0.44-0.33,0.55-0.71,0.55
		c-1.09,0-2.18,0.01-3.26-0.01c-0.32-0.01-0.5,0.09-0.63,0.4c-0.74,1.7-1.31,3.45-1.68,5.27c-0.41,2.02-1.58,3.35-3.59,3.85
		c-2.12,0.53-3.35-0.71-2.84-2.82c0.37-1.53,0.66-3.07,0.48-4.65c-0.14-1.27-1.13-2.25-2.38-2.35c-1.35-0.1-2.5,0.67-2.82,1.94
		c-0.09,0.34-0.11,0.71-0.13,1.06c-0.08,1.46,0.24,2.87,0.59,4.28c0.4,1.62-0.7,2.87-2.36,2.65c-2.14-0.28-3.67-1.69-4.11-3.81
		c-0.39-1.88-0.95-3.7-1.75-5.44c-0.06-0.14-0.2-0.33-0.31-0.34c-0.66-0.03-1.33-0.02-2.01-0.02c-0.01,0.14-0.01,0.23-0.02,0.32
		c-0.07,1.02-0.76,1.85-1.76,2.1c-0.95,0.24-1.98-0.19-2.5-1.03c-0.52-0.85-0.45-1.96,0.21-2.69c0.3-0.33,0.23-0.62,0.12-0.93
		c-1.77,1.14-3.76,0.62-5.66,0.82C1.64,33.55,1.64,37.52,1.64,41.55z M35.18,14.67c0.36,0.49,0.69,0.92,1,1.36
		c0.21,0.3,0.19,0.6-0.13,0.81c-0.32,0.21-0.59,0.1-0.8-0.19c-0.24-0.33-0.49-0.64-0.72-0.97c-0.22-0.31-0.43-0.37-0.8-0.14
		c-3.36,2.05-6.83,3.87-10.38,5.56c-0.75,0.36-1.48,0.56-2.21,0.05c-0.55,0.35-1.06,0.68-1.57,0.99c-0.49,0.3-1.01,0.32-1.52,0.09
		c-0.25-0.11-0.46-0.29-0.7-0.45c-2.02,1.19-3.82,2.79-6.24,3.26c0.06,0.12,0.09,0.18,0.12,0.23c2.62,3.44,4.39,7.25,5.24,11.51
		c0.29,1.45,1.47,2.45,2.95,2.67c1.05,0.16,1.5-0.34,1.24-1.37c-0.4-1.6-0.7-3.22-0.58-4.88c0.15-2.01,1.59-3.54,3.44-3.66
		c2.01-0.13,3.71,1.12,4.05,3.07c0.12,0.68,0.16,1.4,0.08,2.09c-0.14,1.18-0.38,2.36-0.61,3.53c-0.16,0.83,0.27,1.35,1.1,1.26
		c1.63-0.17,2.85-1.24,3.18-2.88c0.83-4.19,2.63-7.93,5.19-11.33c2.29-3.04,2.21-7.42-0.14-10.42c-0.16-0.2-0.34-0.39-0.53-0.59
		C35.61,14.4,35.4,14.53,35.18,14.67z M46.36,42.7c-0.14-0.01-0.25-0.02-0.35-0.03c-2.68-0.18-5.37-0.32-8.04-0.54
		c-2.11-0.18-4.18-0.13-6.21,0.59c-1.43,0.51-2.93,0.66-4.45,0.64c-2.22-0.03-4.45-0.05-6.67,0c-1.72,0.04-3.37-0.21-5-0.74
		c-1.49-0.49-3.01-0.69-4.59-0.56c-2.14,0.18-4.28,0.29-6.42,0.44c-1,0.07-2,0.14-3,0.21c0,0.42,0,0.78,0,1.19c0.19,0,0.36,0,0.53,0
		c2.89,0,5.78,0,8.67,0c0.14,0,0.32-0.05,0.41,0.02c0.19,0.15,0.45,0.35,0.46,0.54c0,0.18-0.26,0.4-0.45,0.54
		c-0.1,0.08-0.3,0.02-0.46,0.02c-2.89,0-5.78,0-8.67,0c-0.16,0-0.33,0-0.48,0c0,0.67,0,1.26,0,1.85c14.92,0,29.8,0,44.71,0
		C46.36,45.48,46.36,44.11,46.36,42.7z M31.25,15.69c0.11-0.05,0.16-0.07,0.2-0.09c5.19-2.94,10-6.45,14.73-10.06
		c0.09-0.07,0.19-0.19,0.19-0.29c0.01-1.04,0.01-2.07,0.01-3.15c-0.24,0-0.42,0-0.6,0c-3.23,0-6.47,0-9.7,0
		c-0.92,0-1.89-0.18-2.73,0.08c-0.88,0.26-1.64,0.93-2.42,1.45c-1.73,1.15-3.45,2.32-5.21,3.51C27.58,10.03,29.41,12.85,31.25,15.69
		z M15.13,18.25c-1.14,1.02-2.23,1.99-3.3,2.98c-0.66,0.61-1.39,1.08-2.22,1.41c-1.19,0.48-1.83,1.54-1.66,2.82
		c0.16,1.25,0.36,2.49,0.59,3.72c0.09,0.49,0.02,0.82-0.4,1.12c-0.42,0.31-0.5,0.89-0.29,1.36c0.21,0.45,0.65,0.71,1.17,0.68
		c0.49-0.03,0.91-0.37,1.04-0.86c0.15-0.55-0.19-0.92-0.5-1.31c-0.16-0.2-0.35-0.46-0.35-0.7c0.02-1.12,0.09-2.23,0.18-3.35
		c0.1-1.27,0.62-1.95,1.84-2.26c2.11-0.54,3.69-1.99,5.55-3.05C16.23,19.94,15.7,19.13,15.13,18.25z M20.24,11.43
		c-0.78,0.67-1.53,1.3-2.27,1.94c-0.3,0.26-0.28,0.56-0.08,0.87c1.24,1.91,2.49,3.83,3.72,5.75c0.24,0.37,0.53,0.43,0.92,0.24
		c0.7-0.34,1.4-0.67,2.1-1c0.16-0.08,0.31-0.17,0.48-0.27C23.48,16.44,21.87,13.95,20.24,11.43z M18.4,11.51
		c-5.23-0.22-9.58,4.69-8.7,9.91c0.38-0.27,0.75-0.48,1.07-0.77c1.18-1.04,2.34-2.09,3.49-3.15c0.11-0.1,0.18-0.34,0.15-0.5
		c-0.13-0.77,0.12-1.41,0.78-1.85c0.39-0.26,0.8-0.49,1.16-0.77c0.13-0.1,0.25-0.31,0.25-0.47c0.01-0.59,0.23-1.05,0.67-1.43
		C17.63,12.18,17.98,11.88,18.4,11.51z M23.41,8.93c1.78,2.75,3.54,5.47,5.31,8.2c0.54-0.3,1.04-0.57,1.56-0.86
		c-1.83-2.83-3.64-5.61-5.45-8.41C24.33,8.22,23.88,8.57,23.41,8.93z M21.12,10.73c1.68,2.6,3.35,5.17,5.03,7.75
		c0.56-0.29,1.07-0.55,1.59-0.83c-1.75-2.7-3.47-5.35-5.21-8.04C22.03,10,21.58,10.35,21.12,10.73z M20.45,20.24
		c-1.1-1.7-2.18-3.36-3.27-5.05c-0.49,0.32-0.95,0.61-1.4,0.91c-0.33,0.22-0.37,0.52-0.16,0.85c0.86,1.33,1.72,2.65,2.58,3.98
		c0.23,0.35,0.53,0.41,0.88,0.2C19.53,20.85,19.96,20.56,20.45,20.24z M10.41,27.94c-0.02,0.51-0.12,0.91-0.03,1.27
		c0.06,0.25,0.36,0.58,0.59,0.61c0.59,0.09,1.2,0.03,1.8,0.03c0.03-0.05,0.05-0.11,0.08-0.16C12.17,28.99,11.29,28.56,10.41,27.94z
		 M10.59,26.3c-0.2,0.54-0.15,0.61,0.49,0.67C10.91,26.73,10.76,26.52,10.59,26.3z"/>
	<path class="st0" d="M6.65,34.14c0.51,0.02,0.76,0.43,0.57,0.8c-0.17,0.33-0.38,0.64-0.6,0.94c-0.19,0.26-0.47,0.31-0.74,0.13
		c-0.26-0.18-0.35-0.44-0.18-0.73c0.18-0.31,0.36-0.61,0.58-0.89C6.39,34.26,6.57,34.19,6.65,34.14z"/>
	<path class="st0" d="M12.49,35.34c-0.19,0.25-0.27,0.47-0.42,0.53c-0.17,0.07-0.48,0.06-0.59-0.05c-0.3-0.33-0.56-0.7-0.77-1.1
		c-0.06-0.12,0.04-0.41,0.16-0.52c0.12-0.11,0.45-0.19,0.53-0.12C11.78,34.46,12.11,34.89,12.49,35.34z"/>
	<path class="st0" d="M9.56,35.8c0,0.2,0.07,0.43-0.02,0.59c-0.1,0.19-0.32,0.42-0.5,0.43c-0.18,0.01-0.48-0.21-0.52-0.38
		c-0.09-0.4-0.09-0.83-0.06-1.24c0.02-0.31,0.27-0.54,0.58-0.44c0.2,0.06,0.39,0.3,0.49,0.5c0.08,0.14,0.01,0.36,0.01,0.55
		C9.55,35.8,9.55,35.8,9.56,35.8z"/>
	<path class="st0" d="M14.7,14.24c-0.05,0.07-0.13,0.23-0.26,0.36c-0.62,0.66-1.28,1.31-1.88,1.99c-0.26,0.29-0.49,0.48-0.87,0.26
		c-0.3-0.18-0.35-0.56-0.06-0.89c0.69-0.77,1.39-1.54,2.15-2.24C14.17,13.38,14.69,13.66,14.7,14.24z"/>
</g>
</svg>
