<?xml version="1.0" encoding="utf-8"?>
<!-- Generator: Adobe Illustrator 25.2.0, SVG Export Plug-In . SVG Version: 6.00 Build 0)  -->
<svg version="1.1" id="Layer_1" xmlns="http://www.w3.org/2000/svg" xmlns:xlink="http://www.w3.org/1999/xlink" x="0px" y="0px"
	 viewBox="0 0 48 49" style="enable-background:new 0 0 48 49;" xml:space="preserve">
<style type="text/css">
	.st0{fill:#1F84B5;}
</style>
<g>
	<path class="st0" d="M15.02,1.28c0.35,0.07,0.71,0.13,1.06,0.21c5.26,1.15,8.22,6.54,6.4,11.62c-0.2,0.57-0.28,1.19-0.38,1.79
		c-0.05,0.26,0.08,0.37,0.37,0.36c0.3-0.01,0.63-0.01,0.89,0.11c0.46,0.22,0.78,0.02,1.17-0.16c1.04-0.48,2.09-0.93,3.16-1.34
		c0.47-0.18,0.84,0.02,0.95,0.4c0.12,0.42-0.11,0.71-0.6,0.89c-1,0.37-1.98,0.78-3.04,1.19c2.71,3.02,3,6.17,1.03,9.58
		c1.17,0.3,2.28,0.76,3.27,1.47c0.99,0.7,1.8,1.57,2.47,2.61c0.11-0.1,0.22-0.18,0.31-0.27c1.39-1.37,2.77-2.75,4.16-4.11
		c0.24-0.23,0.25-0.41,0.11-0.69c-0.7-1.43-1.67-2.62-2.96-3.55c-0.81-0.58-1.64-1.13-2.46-1.7c-0.44-0.3-0.55-0.68-0.33-1.03
		c0.24-0.37,0.63-0.4,1.11-0.08c0.94,0.65,1.88,1.32,2.83,1.97c0.12,0.08,0.33,0.11,0.48,0.08c0.62-0.12,1.24-0.25,1.86-0.41
		c2.49-0.62,3.99-3.1,3.36-5.58c-0.22-0.86-0.86-1.36-1.71-1.32c-0.8,0.04-1.4,0.61-1.54,1.46c-0.21,1.33-1.17,1.82-2.37,1.2
		c-1.07-0.55-2.2-0.9-3.4-1.03c-0.49-0.05-0.76-0.35-0.73-0.75c0.04-0.41,0.35-0.64,0.85-0.59c1.32,0.13,2.57,0.51,3.76,1.1
		c0.14,0.07,0.29,0.14,0.48,0.22c0.25-1.69,1.1-2.8,2.84-2.95c1.45-0.13,2.4,0.57,3.08,2.06c0.64-0.22,1.25-0.51,1.9-0.64
		c1.18-0.23,2.1,0.57,2.1,1.77c0.01,4.43,0,8.86,0,13.29c0,0.89-0.31,1.69-0.86,2.38c-0.68,0.85-1.36,1.7-2.05,2.54
		c-0.33,0.41-0.73,0.5-1.05,0.24c-0.34-0.27-0.34-0.67,0.02-1.11c0.65-0.81,1.31-1.63,1.97-2.43c0.43-0.52,0.64-1.11,0.64-1.79
		c-0.01-4.31,0-8.62,0-12.93c0-0.6-0.15-0.72-0.74-0.6c-1.04,0.21-1.71,1-1.71,2.09c-0.01,3.11-0.02,6.23,0.01,9.34
		c0.01,1.01-0.29,1.84-0.99,2.58c-1.76,1.87-3.48,3.78-5.22,5.67c-0.04,0.04-0.08,0.09-0.12,0.13c-0.32,0.31-0.68,0.33-0.97,0.08
		c-0.3-0.26-0.31-0.67-0.01-1.01c0.92-1.02,1.86-2.03,2.79-3.04c0.93-1.01,1.87-2.02,2.79-3.04c0.72-0.81,0.3-2.01-0.75-2.2
		c-0.43-0.08-0.82,0.05-1.12,0.35c-1.82,1.79-3.63,3.59-5.44,5.4c-0.09,0.09-0.14,0.33-0.09,0.46c1.66,4.31-0.14,9.07-3.97,11.27
		c-0.14,0.08-0.27,0.32-0.27,0.49c-0.02,1.18-0.01,2.36-0.02,3.54c0,0.53-0.26,0.84-0.68,0.84c-0.42,0-0.66-0.31-0.67-0.85
		c0-0.11,0-0.21,0-0.32c0-0.8,0-1.6,0-2.4c0-0.16,0-0.32,0-0.55c-1.98,0.62-3.9,0.63-5.87,0c-0.01,0.21-0.02,0.37-0.03,0.53
		c0,0.92,0,1.84,0,2.77c0,0.53-0.28,0.84-0.69,0.83c-0.4-0.01-0.65-0.31-0.66-0.81c-0.01-1.16-0.01-2.33,0-3.49
		c0-0.29-0.09-0.44-0.34-0.61c-0.64-0.45-1.26-0.93-1.86-1.44c-0.4-0.34-0.43-0.77-0.14-1.07c0.3-0.31,0.7-0.26,1.11,0.12
		c4.31,4.17,11.34,2.38,13.03-3.31c1.29-4.35-1.4-8.87-5.87-9.85c-4.39-0.97-8.73,2.07-9.36,6.56c-0.19,1.35-0.04,2.65,0.45,3.92
		c0.18,0.46,0.02,0.84-0.36,0.98c-0.38,0.14-0.72-0.05-0.91-0.51c-0.03-0.07-0.05-0.14-0.08-0.21c-0.74-2.12-0.72-4.24,0.06-6.34
		c0.08-0.21,0.13-0.36-0.07-0.56c-1.8-1.77-3.59-3.55-5.39-5.33c-0.56-0.55-1.34-0.56-1.87-0.06c-0.53,0.5-0.55,1.29-0.04,1.87
		c0.06,0.07,0.12,0.13,0.18,0.2c1.74,1.89,3.48,3.78,5.22,5.68c0.1,0.11,0.21,0.22,0.29,0.35c0.18,0.3,0.14,0.59-0.11,0.82
		c-0.25,0.24-0.54,0.26-0.83,0.08c-0.11-0.07-0.2-0.18-0.3-0.28c-1.77-1.93-3.53-3.86-5.31-5.77c-0.62-0.67-0.89-1.44-0.88-2.35
		c0.02-3.14,0.01-6.29,0.01-9.43c0-1.13-0.73-1.98-1.82-2.14c-0.48-0.07-0.64,0.06-0.64,0.55c0,1.89,0,3.78,0,5.67
		c0,0.12,0.01,0.24,0,0.36c-0.04,0.39-0.32,0.65-0.69,0.64c-0.36-0.01-0.64-0.27-0.66-0.67c-0.02-0.44-0.01-0.88-0.01-1.32
		c0-1.44,0-2.87,0-4.31c0-1.56,0.27-1.93,1.77-2.37c-0.15-1.23-0.12-2.46,0.13-3.68c0.88-4.31,4.33-7.59,8.69-8.26
		c0.07-0.01,0.14-0.05,0.21-0.07C13.87,1.28,14.45,1.28,15.02,1.28z M16.15,30.1c0.12-0.15,0.15-0.18,0.18-0.22
		c1.9-2.73,4.49-4.12,7.83-4.15c0.17,0,0.4-0.14,0.5-0.28c1.84-2.46,1.87-5.9-0.97-8.41c-0.96-0.85-2.47-0.39-2.78,0.86
		c-0.1,0.4,0.02,0.86,0.04,1.29c0.02,0.29,0.16,0.45,0.44,0.55c0.31,0.1,0.62,0.24,0.91,0.41c0.31,0.18,0.42,0.47,0.27,0.82
		c-0.15,0.35-0.44,0.5-0.81,0.38c-0.22-0.06-0.42-0.17-0.63-0.26c-2.1-0.91-4.29-1.33-6.58-1.13c-0.95,0.08-1.89,0.22-2.84,0.31
		c-0.44,0.05-0.74-0.18-0.79-0.56c-0.05-0.4,0.16-0.68,0.6-0.76c0.27-0.05,0.54-0.07,0.81-0.11c1.77-0.25,3.54-0.42,5.33-0.13
		c0.62,0.1,1.23,0.22,1.87,0.34c-0.19-1.29,0.17-2.33,1.15-3.15c0.09-0.07,0.16-0.24,0.14-0.34c-0.24-1.06,0.06-2.02,0.4-3
		c0.92-2.67,0.5-5.16-1.34-7.3c-1.85-2.15-4.27-2.98-7.05-2.49C8.05,3.62,4.71,8.65,5.69,13.43c0.03,0.14,0.14,0.31,0.26,0.38
		c1.21,0.76,1.75,1.85,1.74,3.27c-0.02,2.24-0.01,4.47,0,6.71c0,0.16,0.01,0.31,0.02,0.5c1.44-0.64,2.58-0.24,3.58,0.84
		c0.67,0.72,1.4,1.38,2.08,2.08C14.29,28.16,15.2,29.11,16.15,30.1z M37.65,24.34c0.83-0.47,1.74-0.47,2.64-0.04
		c0-1.54,0-3.04,0-4.64c-1.18,1.36-2.68,1.9-4.31,2.15C36.54,22.66,37.07,23.46,37.65,24.34z"/>
	<path class="st0" d="M21.77,37.12c-0.77,0-1.46,0-2.15,0c-0.64,0-0.86-0.23-0.86-0.88c0-0.91,0-1.81,0-2.72
		c0-0.61,0.24-0.85,0.85-0.86c0.71-0.01,1.41,0,2.17,0c0-0.72,0-1.4,0-2.07c0-0.74,0.21-0.93,0.95-0.94c0.89,0,1.78,0,2.67,0
		c0.62,0,0.84,0.23,0.85,0.85c0.01,0.69,0,1.39,0,2.16c0.65,0,1.27,0,1.9,0c0.97,0,1.12,0.15,1.12,1.13c0,0.83,0,1.66,0,2.49
		c0,0.59-0.24,0.82-0.82,0.83c-0.71,0.01-1.41,0-2.19,0c0,0.68,0,1.33,0,1.97c0,0.89-0.17,1.06-1.06,1.06c-0.85,0-1.69,0.01-2.54,0
		c-0.65-0.01-0.87-0.23-0.87-0.88C21.76,38.57,21.77,37.88,21.77,37.12z M23.12,31.04c0,0.73,0,1.43,0,2.14
		c-0.01,0.62-0.23,0.84-0.85,0.84c-0.71,0-1.41,0-2.14,0c0,0.6,0,1.15,0,1.74c0.72,0,1.41,0,2.1,0c0.67,0,0.89,0.22,0.89,0.9
		c0,0.69,0,1.38,0,2.1c0.61,0,1.16,0,1.76,0c0-0.7,0-1.38,0-2.05c0-0.74,0.21-0.94,0.94-0.95c0.68,0,1.35,0,2.05,0
		c0-0.6,0-1.15,0-1.74c-0.71,0-1.4,0-2.09,0c-0.68,0-0.89-0.21-0.9-0.89c0-0.69,0-1.38,0-2.1C24.28,31.04,23.73,31.04,23.12,31.04z"
		/>
	<path class="st0" d="M3.86,26.56c0,0.59,0.01,1.18,0,1.77c-0.01,0.65,0.2,1.21,0.61,1.71C6.86,33,9.21,36,11.65,38.92
		c1.55,1.85,2.03,3.89,1.53,6.21c-0.14,0.65-0.21,1.31-0.33,1.96c-0.08,0.44-0.41,0.69-0.79,0.62c-0.39-0.08-0.6-0.42-0.53-0.86
		c0.14-0.92,0.29-1.85,0.44-2.77c0.23-1.44-0.12-2.73-1.03-3.86c-2.48-3.09-4.96-6.17-7.46-9.24c-0.66-0.81-0.99-1.71-0.97-2.75
		c0.02-1.19,0-2.39,0.01-3.58c0-0.53,0.25-0.85,0.66-0.86c0.43-0.01,0.69,0.32,0.69,0.87C3.86,25.29,3.86,25.93,3.86,26.56z"/>
	<path class="st0" d="M34.6,43.62c0.03-1.74,0.43-3.01,1.29-4.1c1.12-1.42,2.27-2.83,3.41-4.23c0.35-0.43,0.77-0.51,1.09-0.22
		c0.3,0.27,0.29,0.67-0.04,1.08c-1.03,1.28-2.05,2.58-3.1,3.84c-1.12,1.33-1.48,2.83-1.15,4.52c0.15,0.78,0.26,1.58,0.39,2.37
		c0.06,0.41-0.15,0.75-0.52,0.83c-0.34,0.08-0.73-0.13-0.79-0.5C34.95,45.89,34.76,44.58,34.6,43.62z"/>
	<path class="st0" d="M12.21,10.2c0.32,0.08,0.65,0.14,0.95,0.26c0.36,0.15,0.51,0.53,0.37,0.86c-0.16,0.35-0.44,0.45-0.82,0.4
		c-0.3-0.04-0.65-0.11-0.91,0c-0.55,0.23-0.58,0.77-0.55,1.28c0.04,0.66,0.38,1.16,0.95,1.5c0.46,0.28,0.6,0.64,0.4,1
		c-0.21,0.37-0.63,0.43-1.1,0.16c-1.36-0.78-1.96-2.49-1.4-3.96C10.44,10.82,11.26,10.26,12.21,10.2z"/>
	<path class="st0" d="M17.26,13.2c0.54,0.16,1.1,0.28,1.62,0.48c0.4,0.16,0.52,0.55,0.36,0.9c-0.16,0.34-0.52,0.44-0.92,0.32
		c-0.4-0.12-0.81-0.21-1.22-0.25c-0.57-0.05-0.88-0.26-0.88-0.68c0-0.42,0.33-0.68,0.88-0.69c0.05,0,0.09,0,0.14,0
		C17.24,13.26,17.25,13.23,17.26,13.2z"/>
</g>
</svg>
