<?xml version="1.0" encoding="utf-8"?>
<!-- Generator: Adobe Illustrator 25.2.0, SVG Export Plug-In . SVG Version: 6.00 Build 0)  -->
<svg version="1.1" id="Layer_1" xmlns="http://www.w3.org/2000/svg" xmlns:xlink="http://www.w3.org/1999/xlink" x="0px" y="0px"
	 viewBox="0 0 48 49" style="enable-background:new 0 0 48 49;" xml:space="preserve">
<style type="text/css">
	.st0{fill:#1F84B5;}
</style>
<g>
	<path class="st0" d="M31.33,10.6c1.22,0.25,2.44,0.37,3.57,0.76c2.86,0.99,4.4,3.18,5.03,6.06c0.61,2.77,0.18,5.48-0.6,8.15
		c-0.7,2.41-1.65,4.74-2.91,6.91c-1.43,2.47-2.18,5.13-2.76,7.88c-0.36,1.73-0.82,3.44-1.3,5.15c-0.14,0.51-0.44,0.99-0.75,1.44
		c-0.64,0.96-1.57,1.32-2.71,1.17c-0.62-0.08-1.06-0.43-1.37-0.95c-0.63-1.02-0.88-2.16-1.03-3.32c-0.31-2.31-0.54-4.64-0.86-6.95
		c-0.14-1.03-0.4-2.04-0.65-3.05c-0.07-0.31-0.24-0.61-0.43-0.87c-0.34-0.48-0.84-0.5-1.13,0.02c-0.3,0.54-0.57,1.13-0.67,1.72
		c-0.33,1.99-0.56,4-0.86,6c-0.25,1.69-0.54,3.37-0.84,5.06c-0.06,0.33-0.21,0.65-0.36,0.96c-0.77,1.59-2.67,1.92-3.94,0.67
		c-0.73-0.72-1.14-1.64-1.38-2.61c-0.47-1.87-0.89-3.75-1.3-5.63c-0.49-2.23-1.21-4.36-2.33-6.37c-1.64-2.94-2.94-6.04-3.6-9.37
		c-0.5-2.56-0.58-5.1,0.4-7.58c1.2-3.04,3.52-4.61,6.69-5c2.19-0.27,4.27,0.14,6.26,1.08c1.67,0.79,3.32,0.76,5,0.02
		c0.88-0.38,1.82-0.62,2.72-0.94c0.21-0.07,0.43-0.19,0.57-0.35c0.97-1.06,1.91-2.14,2.87-3.2c0.17-0.18,0.22-0.32,0.12-0.57
		c-0.27-0.69-0.16-1.36,0.34-1.92c1.07-1.2,2.14-2.39,3.24-3.55c0.74-0.78,1.92-0.79,2.7-0.09c0.79,0.71,0.88,1.91,0.15,2.73
		C38.16,5.25,37.09,6.42,36,7.58c-0.54,0.57-1.21,0.71-1.97,0.52c-0.14-0.03-0.37-0.04-0.45,0.05C32.8,8.97,32.05,9.82,31.33,10.6z
		 M23.77,13.61c0.13,0.16,0.17,0.23,0.23,0.26c0.39,0.18,0.77,0.39,1.17,0.52c0.33,0.11,0.59,0.26,0.54,0.64
		c-0.05,0.4-0.34,0.53-0.72,0.48c-0.12-0.02-0.24-0.04-0.37-0.07c-0.78-0.16-1.32-0.67-1.84-1.21c-0.61-0.64-1.33-1.12-2.14-1.46
		c-1.67-0.71-3.4-0.96-5.2-0.8c-3.01,0.27-5.17,2.01-6.08,4.88c-0.57,1.79-0.57,3.62-0.3,5.45c0.41,2.8,1.4,5.41,2.62,7.94
		c0.7,1.46,1.52,2.86,2.17,4.34c0.99,2.26,1.35,4.71,1.9,7.11c0.28,1.24,0.63,2.47,1.03,3.68c0.15,0.45,0.46,0.9,0.8,1.24
		c0.75,0.75,1.77,0.53,2.16-0.44c0.21-0.53,0.4-1.09,0.48-1.65c0.37-2.63,0.68-5.28,1.03-7.91c0.18-1.34,0.39-2.68,1.03-3.9
		c0.36-0.69,0.89-1.18,1.71-1.18c0.83,0,1.41,0.48,1.69,1.19c0.36,0.92,0.71,1.87,0.86,2.84c0.38,2.51,0.61,5.04,0.98,7.54
		c0.16,1.1,0.47,2.19,0.82,3.24c0.24,0.7,0.79,0.9,1.48,0.61c0.35-0.15,0.7-0.42,0.93-0.73c0.29-0.41,0.54-0.89,0.67-1.37
		c0.41-1.53,0.81-3.07,1.12-4.62c0.59-2.93,1.42-5.75,2.94-8.36c1.17-2.02,2.06-4.19,2.73-6.43c0.73-2.44,1.18-4.91,0.69-7.46
		c-0.53-2.8-1.98-4.84-4.81-5.69c-1.13-0.34-2.29-0.44-3.46-0.31c-0.24,0.03-0.55,0.17-0.69,0.36c-1.32,1.77-2.61,3.57-3.9,5.36
		c-0.11,0.15-0.2,0.32-0.36,0.57c0.32-0.1,0.52-0.16,0.73-0.23c1.38-0.45,2.79-0.6,4.23-0.37c2.01,0.33,3.46,1.37,4.17,3.35
		c0.5,1.38,0.59,2.79,0.4,4.23c-0.26,1.91-0.94,3.7-1.68,5.47c-0.55,1.32-1.15,2.62-1.36,4.06c-0.32,2.2-0.59,4.41-0.94,6.61
		c-0.13,0.82-0.39,1.63-0.65,2.42c-0.13,0.4-0.49,0.63-0.95,0.63c-0.47,0-0.82-0.22-1-0.64c-0.16-0.37-0.32-0.76-0.36-1.15
		c-0.18-1.8-0.31-3.6-0.47-5.39c-0.16-1.74-0.4-3.46-1.11-5.08c-0.38-0.85-0.88-1.61-1.65-2.16c-0.74-0.53-1.35-0.57-2.04,0.02
		c-0.51,0.43-1.03,0.94-1.33,1.53c-0.45,0.91-0.87,1.89-1.02,2.88c-0.32,2.12-0.44,4.27-0.7,6.4c-0.12,0.98-0.32,1.96-0.55,2.92
		c-0.11,0.43-0.5,0.66-0.97,0.68c-0.48,0.02-0.82-0.22-1.01-0.62c-0.19-0.41-0.37-0.83-0.44-1.27c-0.28-1.77-0.51-3.54-0.75-5.31
		c-0.27-1.99-0.62-3.96-1.47-5.81c-0.49-1.07-0.9-2.19-1.28-3.3c-0.66-1.93-1.04-3.91-0.62-5.96c0.51-2.51,1.9-3.97,4.31-4.44
		c1.46-0.28,2.9-0.13,4.33,0.3c0.73,0.21,1.48,0.34,2.22,0.49c0.36,0.07,0.58-0.07,0.79-0.39c1.01-1.55,2.05-3.08,3.09-4.61
		c0.23-0.34,0.49-0.66,0.74-1C26.86,12.97,25.49,13.73,23.77,13.61z M23.52,19.7c-0.94-0.25-1.87-0.5-2.8-0.75
		c-1.07-0.28-2.15-0.35-3.24-0.17c-1.66,0.28-2.81,1.16-3.33,2.81c-0.38,1.22-0.42,2.44-0.23,3.69c0.3,1.92,1,3.72,1.78,5.49
		c0.82,1.86,1.29,3.79,1.55,5.79c0.23,1.82,0.49,3.64,0.75,5.46c0.05,0.37,0.19,0.72,0.28,1.08c0.06,0,0.12,0,0.18,0
		c0.06-0.21,0.15-0.41,0.17-0.63c0.11-1.05,0.21-2.11,0.28-3.16c0.14-1.96,0.25-3.92,0.76-5.82c0.42-1.57,1.02-3.05,2.3-4.13
		c1.22-1.03,2.84-1.02,4.06,0.01c0.88,0.74,1.44,1.7,1.85,2.76c0.77,2,0.97,4.11,1.13,6.22c0.11,1.41,0.24,2.82,0.37,4.23
		c0.02,0.18,0.12,0.34,0.18,0.52c0.05,0,0.1,0,0.15-0.01c0.08-0.27,0.19-0.54,0.23-0.82c0.26-1.77,0.51-3.54,0.74-5.31
		c0.27-2.02,0.65-4.02,1.49-5.9c0.48-1.06,0.88-2.16,1.26-3.26c0.6-1.74,0.94-3.52,0.61-5.37c-0.37-2.07-1.43-3.27-3.39-3.59
		c-0.93-0.15-1.92-0.1-2.87,0.02c-0.87,0.11-1.72,0.42-2.56,0.67c-0.2,0.06-0.43,0.19-0.53,0.36c-0.53,0.9-1.04,1.81-1.52,2.73
		c-1.88,3.62-3.36,7.4-4,11.44c-0.34,2.15-0.41,4.33-0.62,6.5c-0.02,0.17-0.17,0.45-0.29,0.47c-0.32,0.06-0.34-0.23-0.36-0.47
		c-0.19-2.29-0.09-4.57,0.32-6.84c0.74-4.15,2.19-8.06,4.11-11.8C22.73,21.16,23.14,20.42,23.52,19.7z M38.68,2.72
		c-0.2-0.23-0.36-0.52-0.61-0.68c-0.34-0.21-0.69-0.06-0.96,0.23c-1.03,1.12-2.06,2.24-3.08,3.38c-0.36,0.4-0.33,0.89,0.01,1.21
		c0.35,0.32,0.84,0.3,1.2-0.09c1.04-1.12,2.06-2.24,3.08-3.38C38.46,3.23,38.52,3.01,38.68,2.72z"/>
</g>
</svg>
